<svg width="15" height="9" viewBox="0 0 15 9" fill="none" xmlns="http://www.w3.org/2000/svg">
<path d="M0.761719 9V0.46875H3.75C4.78516 0.46875 5.57031 0.667969 6.10547 1.06641C6.64062 1.46094 6.9082 2.04102 6.9082 2.80664C6.9082 3.22461 6.80078 3.59375 6.58594 3.91406C6.37109 4.23047 6.07227 4.46289 5.68945 4.61133C6.12695 4.7207 6.4707 4.94141 6.7207 5.27344C6.97461 5.60547 7.10156 6.01172 7.10156 6.49219C7.10156 7.3125 6.83984 7.93359 6.31641 8.35547C5.79297 8.77734 5.04688 8.99219 4.07812 9H0.761719ZM2.51953 5.28516V7.58789H4.02539C4.43945 7.58789 4.76172 7.49023 4.99219 7.29492C5.22656 7.0957 5.34375 6.82227 5.34375 6.47461C5.34375 5.69336 4.93945 5.29688 4.13086 5.28516H2.51953ZM2.51953 4.04297H3.82031C4.70703 4.02734 5.15039 3.67383 5.15039 2.98242C5.15039 2.5957 5.03711 2.31836 4.81055 2.15039C4.58789 1.97852 4.23438 1.89258 3.75 1.89258H2.51953V4.04297ZM8.42578 9V0.46875H11.4141C12.4492 0.46875 13.2344 0.667969 13.7695 1.06641C14.3047 1.46094 14.5723 2.04102 14.5723 2.80664C14.5723 3.22461 14.4648 3.59375 14.25 3.91406C14.0352 4.23047 13.7363 4.46289 13.3535 4.61133C13.791 4.7207 14.1348 4.94141 14.3848 5.27344C14.6387 5.60547 14.7656 6.01172 14.7656 6.49219C14.7656 7.3125 14.5039 7.93359 13.9805 8.35547C13.457 8.77734 12.7109 8.99219 11.7422 9H8.42578ZM10.1836 5.28516V7.58789H11.6895C12.1035 7.58789 12.4258 7.49023 12.6562 7.29492C12.8906 7.0957 13.0078 6.82227 13.0078 6.47461C13.0078 5.69336 12.6035 5.29688 11.7949 5.28516H10.1836ZM10.1836 4.04297H11.4844C12.3711 4.02734 12.8145 3.67383 12.8145 2.98242C12.8145 2.5957 12.7012 2.31836 12.4746 2.15039C12.252 1.97852 11.8984 1.89258 11.4141 1.89258H10.1836V4.04297Z" fill="#007346"/>
</svg>
