<svg width="32" height="31" viewBox="0 0 32 31" fill="none" xmlns="http://www.w3.org/2000/svg">
<path d="M4.5 18.5C4.22386 18.5 4 18.7239 4 19C4 19.2761 4.22386 19.5 4.5 19.5V18.5ZM8.50289 15.2572L8.03865 15.4429L8.03865 15.4429L8.50289 15.2572ZM8.90289 16.2572L9.36713 16.0715L9.36713 16.0715L8.90289 16.2572ZM18.5 23V26H19.5V23H18.5ZM15 29.5H5V30.5H15V29.5ZM1.5 26V16H0.5V26H1.5ZM3 14.5H6.64593V13.5H3V14.5ZM8.03865 15.4429L8.43865 16.4429L9.36713 16.0715L8.96713 15.0715L8.03865 15.4429ZM7.04593 18.5H4.5V19.5H7.04593V18.5ZM4.5 19.5H15V18.5H4.5V19.5ZM6.64593 14.5C6.98484 14.5 7.19874 14.5007 7.36088 14.5185C7.51073 14.535 7.56782 14.562 7.60328 14.586L8.16391 13.7579C7.94543 13.61 7.71158 13.551 7.47004 13.5245C7.24079 13.4993 6.96284 13.5 6.64593 13.5V14.5ZM8.96713 15.0715C8.84943 14.7773 8.74685 14.519 8.63833 14.3154C8.524 14.101 8.3824 13.9058 8.16391 13.7579L7.60328 14.586C7.63875 14.61 7.68501 14.653 7.75595 14.786C7.83269 14.9299 7.91278 15.1282 8.03865 15.4429L8.96713 15.0715ZM8.43865 16.4429C8.69329 17.0795 8.86202 17.5049 8.93852 17.826C9.01264 18.1372 8.96989 18.2317 8.937 18.2803L9.76507 18.8409C10.0296 18.4502 10.0114 18.0143 9.91131 17.5943C9.81363 17.1843 9.60956 16.6776 9.36713 16.0715L8.43865 16.4429ZM7.04593 19.5C7.69871 19.5 8.24492 19.5013 8.66191 19.4397C9.08906 19.3766 9.50049 19.2317 9.76507 18.8409L8.937 18.2803C8.90411 18.3289 8.8322 18.4037 8.51577 18.4504C8.18918 18.4987 7.73157 18.5 7.04593 18.5V19.5ZM5 29.5C4.04306 29.5 3.37565 29.4989 2.87208 29.4312C2.3829 29.3655 2.12385 29.2452 1.93934 29.0607L1.23223 29.7678C1.63351 30.169 2.13876 30.3416 2.73883 30.4223C3.32452 30.5011 4.07133 30.5 5 30.5V29.5ZM0.5 26C0.5 26.9287 0.498938 27.6755 0.577682 28.2612C0.65836 28.8612 0.830955 29.3665 1.23223 29.7678L1.93934 29.0607C1.75483 28.8762 1.63453 28.6171 1.56876 28.1279C1.50106 27.6244 1.5 26.9569 1.5 26H0.5ZM18.5 26C18.5 26.9569 18.4989 27.6244 18.4312 28.1279C18.3655 28.6171 18.2452 28.8762 18.0607 29.0607L18.7678 29.7678C19.169 29.3665 19.3416 28.8612 19.4223 28.2612C19.5011 27.6755 19.5 26.9287 19.5 26H18.5ZM15 30.5C15.9287 30.5 16.6755 30.5011 17.2612 30.4223C17.8612 30.3416 18.3665 30.169 18.7678 29.7678L18.0607 29.0607C17.8762 29.2452 17.6171 29.3655 17.1279 29.4312C16.6244 29.4989 15.9569 29.5 15 29.5V30.5ZM19.5 23C19.5 22.0713 19.5011 21.3245 19.4223 20.7388C19.3416 20.1388 19.169 19.6335 18.7678 19.2322L18.0607 19.9393C18.2452 20.1238 18.3655 20.3829 18.4312 20.8721C18.4989 21.3756 18.5 22.0431 18.5 23H19.5ZM15 19.5C15.9569 19.5 16.6244 19.5011 17.1279 19.5688C17.6171 19.6345 17.8762 19.7548 18.0607 19.9393L18.7678 19.2322C18.3665 18.831 17.8612 18.6584 17.2612 18.5777C16.6755 18.4989 15.9287 18.5 15 18.5V19.5ZM1.5 16C1.5 15.5145 1.50106 15.2006 1.53215 14.9694C1.56131 14.7525 1.60838 14.6845 1.64645 14.6464L0.93934 13.9393C0.684509 14.1942 0.585136 14.5083 0.54107 14.8361C0.498938 15.1495 0.5 15.5427 0.5 16H1.5ZM3 13.5C2.54273 13.5 2.14948 13.4989 1.8361 13.5411C1.50835 13.5851 1.19417 13.6845 0.93934 13.9393L1.64645 14.6464C1.68451 14.6084 1.75248 14.5613 1.96935 14.5322C2.20061 14.5011 2.51446 14.5 3 14.5V13.5Z" fill="#808080"/>
<path d="M10.9221 27.666L11.2631 28.0316L10.5329 28.7127L10.425 27.72L10.9221 27.666ZM23.2397 9.49854C23.4985 9.59478 23.6303 9.88263 23.5341 10.1415C23.4378 10.4003 23.15 10.5321 22.8912 10.4358L23.2397 9.49854ZM16.5849 23.0686L11.2631 28.0316L10.5811 27.3003L15.9028 22.3373L16.5849 23.0686ZM10.425 27.72L9.63894 20.4857L10.6331 20.3777L11.4192 27.612L10.425 27.72ZM10.4535 27.4917L15.8935 12.8622L16.8308 13.2107L11.3907 27.8403L10.4535 27.4917ZM15.8935 12.8622C16.9933 9.90476 20.2823 8.3988 23.2397 9.49854L22.8912 10.4358C20.4514 9.52858 17.7381 10.7709 16.8308 13.2107L15.8935 12.8622Z" fill="#808080"/>
<path d="M16.5 5.5C16.2239 5.5 16 5.72386 16 6C16 6.27614 16.2239 6.5 16.5 6.5V5.5ZM20.5029 2.25722L20.0386 2.44291L20.0386 2.44291L20.5029 2.25722ZM20.9029 3.25722L21.3671 3.07152L21.3671 3.07152L20.9029 3.25722ZM30.5 10V13H31.5V10H30.5ZM27 16.5H17V17.5H27V16.5ZM13.5 13V3H12.5V13H13.5ZM15 1.5H18.6459V0.5H15V1.5ZM20.0386 2.44291L20.4386 3.44291L21.3671 3.07152L20.9671 2.07152L20.0386 2.44291ZM19.0459 5.5H16.5V6.5H19.0459V5.5ZM16.5 6.5H27V5.5H16.5V6.5ZM18.6459 1.5C18.9848 1.5 19.1987 1.5007 19.3609 1.5185C19.5107 1.53496 19.5678 1.56195 19.6033 1.58597L20.1639 0.757899C19.9454 0.609978 19.7116 0.551006 19.47 0.52448C19.2408 0.499302 18.9628 0.5 18.6459 0.5V1.5ZM20.9671 2.07152C20.8494 1.77729 20.7469 1.51896 20.6383 1.31545C20.524 1.10104 20.3824 0.90582 20.1639 0.757899L19.6033 1.58597C19.6387 1.60998 19.685 1.65295 19.7559 1.78598C19.8327 1.9299 19.9128 2.12825 20.0386 2.44291L20.9671 2.07152ZM20.4386 3.44291C20.6933 4.07951 20.862 4.50488 20.9385 4.82603C21.0126 5.13718 20.9699 5.23173 20.937 5.28031L21.7651 5.84094C22.0296 5.45015 22.0114 5.01435 21.9113 4.59431C21.8136 4.18427 21.6096 3.67761 21.3671 3.07152L20.4386 3.44291ZM19.0459 6.5C19.6987 6.5 20.2449 6.50131 20.6619 6.43971C21.0891 6.37661 21.5005 6.23173 21.7651 5.84094L20.937 5.28031C20.9041 5.3289 20.8322 5.4037 20.5158 5.45045C20.1892 5.49869 19.7316 5.5 19.0459 5.5V6.5ZM17 16.5C16.0431 16.5 15.3756 16.4989 14.8721 16.4312C14.3829 16.3655 14.1238 16.2452 13.9393 16.0607L13.2322 16.7678C13.6335 17.169 14.1388 17.3416 14.7388 17.4223C15.3245 17.5011 16.0713 17.5 17 17.5V16.5ZM12.5 13C12.5 13.9287 12.4989 14.6755 12.5777 15.2612C12.6584 15.8612 12.831 16.3665 13.2322 16.7678L13.9393 16.0607C13.7548 15.8762 13.6345 15.6171 13.5688 15.1279C13.5011 14.6244 13.5 13.9569 13.5 13H12.5ZM30.5 13C30.5 13.9569 30.4989 14.6244 30.4312 15.1279C30.3655 15.6171 30.2452 15.8762 30.0607 16.0607L30.7678 16.7678C31.169 16.3665 31.3416 15.8612 31.4223 15.2612C31.5011 14.6755 31.5 13.9287 31.5 13H30.5ZM27 17.5C27.9287 17.5 28.6755 17.5011 29.2612 17.4223C29.8612 17.3416 30.3665 17.169 30.7678 16.7678L30.0607 16.0607C29.8762 16.2452 29.6171 16.3655 29.1279 16.4312C28.6244 16.4989 27.9569 16.5 27 16.5V17.5ZM31.5 10C31.5 9.07133 31.5011 8.32452 31.4223 7.73883C31.3416 7.13876 31.169 6.63351 30.7678 6.23223L30.0607 6.93934C30.2452 7.12385 30.3655 7.3829 30.4312 7.87208C30.4989 8.37565 30.5 9.04306 30.5 10H31.5ZM27 6.5C27.9569 6.5 28.6244 6.50106 29.1279 6.56876C29.6171 6.63453 29.8762 6.75483 30.0607 6.93934L30.7678 6.23223C30.3665 5.83096 29.8612 5.65836 29.2612 5.57768C28.6755 5.49894 27.9287 5.5 27 5.5V6.5ZM13.5 3C13.5 2.51446 13.5011 2.20061 13.5322 1.96935C13.5613 1.75248 13.6084 1.68451 13.6464 1.64645L12.9393 0.93934C12.6845 1.19417 12.5851 1.50835 12.5411 1.8361C12.4989 2.14948 12.5 2.54273 12.5 3H13.5ZM15 0.5C14.5427 0.5 14.1495 0.498938 13.8361 0.54107C13.5083 0.585136 13.1942 0.684509 12.9393 0.93934L13.6464 1.64645C13.6845 1.60838 13.7525 1.56131 13.9694 1.53215C14.2006 1.50106 14.5145 1.5 15 1.5V0.5Z" fill="#808080"/>
</svg>
