<svg width="61" height="64" viewBox="0 0 61 64" fill="none" xmlns="http://www.w3.org/2000/svg">
<g filter="url(#filter0_f)">
<path d="M44.3419 22.0826C44.8711 25.5222 43.019 26.0514 41.4315 25.5222M28.2023 25.2576C25.8737 27.1489 22.9578 25.2473 24.2335 22.3472M41.6866 7C40.0048 7 38.5465 7.33305 37.202 7.67005C39.5581 8.6773 41.0165 9.91231 41.8004 10.4729C43.596 12.0407 44.6032 13.6129 46.3988 16.1923C46.7314 16.7529 47.2922 17.5368 47.6294 18.7674C47.9667 19.8885 47.9666 20.7863 47.9666 21.6841C47.9666 22.9191 47.8527 23.9264 47.7391 24.9336C47.6298 25.7219 47.6298 26.0591 47.52 26.2825C47.52 26.3964 47.52 26.5058 47.406 26.7292C47.406 27.2898 47.406 27.5175 47.52 27.9642C47.52 28.4109 47.6294 28.8619 47.6294 29.6458C47.7433 31.1042 47.7433 32.1114 47.52 33.342V33.7931C47.2921 34.8004 47.0689 35.812 46.5084 36.7054C46.6224 36.9334 46.7317 37.0427 46.8457 37.266C47.4062 36.4821 47.8529 35.6982 48.2996 34.8048C49.6485 32.3348 50.4324 30.2064 50.9929 28.6386C52.0002 25.7219 52.5608 23.5891 52.898 22.0213C53.6819 18.6579 53.7958 17.0901 53.4586 15.2946C53.4586 14.734 53.2353 13.7223 52.6747 12.7151C51.4396 10.4729 49.5346 9.46557 48.1902 8.79116C47.2924 8.34446 44.936 7.10949 41.6866 7ZM17.3984 7.49488C16.1065 7.46945 14.5299 7.6131 12.7606 8.45395C12.2001 8.6815 10.5184 9.46557 9.1739 11.2568C8.27614 12.3779 7.60609 14.0596 7.26884 15.9646C6.93155 17.6463 6.81778 19.6696 7.49215 23.4797C7.93881 26.1686 8.38991 27.9642 9.28767 31.6604C9.40166 32.1114 10.0716 34.1304 11.5299 38.6148L11.6393 38.8382C11.8668 39.6221 12.537 41.3038 13.9953 42.9854C15.0026 44.1066 15.9004 44.781 16.6887 44.781H16.9078C18.3661 44.781 19.3778 43.6599 20.2712 42.7621C20.2712 42.6481 22.4039 40.0732 23.1878 39.1754C23.0738 39.0614 22.8552 39.0614 22.7411 38.9478C21.3967 38.1639 20.385 36.9333 19.6011 35.5844C18.2567 33.1188 18.3661 30.6533 18.5895 29.4182L18.7035 27.5176C18.2568 24.4871 18.3704 21.5747 18.931 18.6581C19.3777 16.1925 19.9383 13.7269 21.9528 11.1474C22.6272 10.2496 23.4111 9.4657 24.195 8.90514C22.4039 8.12124 20.4988 7.67018 18.5894 7.56068C18.2259 7.53102 17.8276 7.50377 17.3984 7.49488ZM31.4825 8.45395C30.922 8.45395 30.3614 8.45395 29.8009 8.56794C27.5586 9.01464 25.4302 10.2496 23.7485 12.378C22.0669 14.5108 21.6202 16.5253 21.1735 18.8814C20.9455 19.7792 20.9455 20.5631 20.8319 21.4609C21.5064 20.9003 22.4041 20.2259 23.7486 19.8887C24.5325 19.6654 26.5514 18.9953 28.2331 20.0027C28.7937 20.3399 29.5776 21.0143 30.3615 22.9193C32.0432 27.6272 30.3657 32.4489 30.1424 32.8956C30.0284 33.3423 29.8051 33.6795 29.6913 33.9029C29.468 34.4635 29.2446 34.9145 29.0213 35.8123C28.9073 36.5962 28.7937 37.2706 28.7937 38.0545C29.131 38.0545 29.4681 38.1639 29.801 38.3876C30.3615 38.9482 30.4754 39.7364 30.5893 40.0693C30.8126 41.8648 30.8126 44.1071 30.8126 46.3493C30.8126 48.1449 30.8126 49.8266 30.9219 50.9477C31.1494 53.5272 31.9335 55.3183 33.0547 56.2161C33.8386 56.8905 34.8458 56.8861 35.4064 57H35.634C37.3156 57 40.0046 55.8789 41.0118 54.3111C41.5724 53.4133 41.8002 52.6294 42.0235 51.5083C42.1375 50.8338 42.1328 50.501 42.2468 49.8265C42.2468 49.4893 42.3608 48.9288 42.3608 48.2587C42.3608 47.6982 42.4701 47.0238 42.5841 46.2355C42.6981 44.3304 43.0308 42.0925 43.1447 40.8576C43.2586 39.3992 43.9286 38.1642 44.4891 37.3803C43.7052 37.2664 42.9213 36.5964 42.4746 35.4753C41.8002 34.2403 41.6863 33.9031 41.5724 33.3425C41.4631 32.8958 41.2398 32.3353 40.4513 30.6536C38.7697 26.8435 38.5507 25.7224 38.5507 24.8246C38.4367 23.5896 38.3231 21.9123 39.6718 20.7912C41.6863 18.9956 44.2658 19.1095 45.6103 19.5562V19.3286C45.387 18.4352 44.9402 17.7608 44.603 17.3141C42.9213 14.7346 42.0236 13.3902 40.4513 12.0457C39.7813 11.4851 38.0996 10.1363 35.634 9.2429C34.5129 8.90561 33.1642 8.45395 31.4825 8.45395ZM43.8762 21.6009C43.0616 21.5441 42.0238 21.6839 41.126 22.4724C40.6793 22.9191 40.6793 23.8169 40.7933 24.6008C40.7933 25.1613 40.9026 25.9452 42.5845 29.7597C43.3684 31.5509 43.5917 32.1114 43.7056 32.5625C43.8196 33.0092 43.9289 33.2326 44.6034 34.4632C44.7174 34.6907 44.8267 34.9143 45.0501 35.1376C45.2734 34.8003 45.3874 34.2398 45.4968 33.342L45.6108 33.009C45.8341 32.0017 45.7248 31.2135 45.7248 29.869C45.7248 29.1946 45.6108 28.7479 45.6108 28.4106C45.4968 27.8501 45.4968 27.4034 45.4968 26.7289C45.2735 26.3916 45.2735 26.2822 45.3875 26.0545C45.3875 25.8312 45.4968 25.4983 45.6108 24.8239C45.7248 23.9262 45.8383 23.1422 45.8383 22.2445C45.6108 22.1305 45.501 22.0211 45.2778 21.9114C45.2778 21.9114 44.6864 21.6581 43.8762 21.6009ZM26.3455 22.0432C25.6317 21.9602 24.8127 22.1919 24.3091 22.3585C23.0741 22.6958 22.2946 23.4796 21.734 23.9263C21.3967 24.2636 21.0596 24.6007 20.7223 25.0474C20.7223 25.8313 20.8317 26.6197 20.9457 27.4036V27.5175L20.7223 29.7598C20.499 30.7671 20.3851 32.6721 21.5063 34.5771C22.0669 35.6983 22.8551 36.596 23.8624 37.1566C24.5368 37.6033 25.4302 37.9405 26.4375 38.1682C26.4375 37.38 26.5515 36.4822 26.665 35.6983C26.8883 34.5771 27.1117 34.0166 27.4489 33.3421C27.5629 33.0091 27.6722 32.786 27.9 32.4487C28.0094 32.1114 29.5773 27.8504 28.1191 23.9265C27.7865 23.0287 27.4491 22.4681 26.998 22.2447C26.8052 22.1308 26.5777 22.0695 26.3455 22.0432ZM46.5082 38.2776C45.9477 39.0615 45.1638 40.0732 45.0499 41.4177C45.0499 41.641 45.0499 41.755 44.9359 41.9782C45.8337 42.2015 46.622 42.2015 47.4059 42.0922C49.2015 41.8647 50.4321 40.9667 50.6554 40.7434C51.4393 40.1828 52.451 39.0617 52.2233 38.615C52.114 38.3917 51.7766 38.501 49.981 38.615C49.5343 38.615 48.1899 38.9523 47.2921 38.729H47.0688C46.8455 38.615 46.6221 38.5012 46.5082 38.2776ZM26.998 40.5199C26.7747 40.8572 26.4418 41.0805 26.2185 41.3038C25.3207 41.8644 24.1952 42.3154 23.0741 42.5388C22.0668 42.8761 21.5063 42.8761 21.5063 43.2132C21.3923 43.6599 22.5135 44.2205 23.0741 44.4438C24.9835 45.2277 26.8885 44.7811 27.2257 44.6671C27.4491 44.5532 28.0097 44.3299 28.5703 43.9927C28.5703 42.7621 28.4609 41.641 28.3469 40.7432V40.6292H28.233C27.8957 40.6292 27.4491 40.6335 26.998 40.5199Z" stroke="#F0FF4C" stroke-opacity="0.8" stroke-width="6" stroke-linecap="round" stroke-linejoin="round"/>
</g>
<path d="M44.3419 22.0826C44.871 25.5222 43.019 26.0514 41.4315 25.5222M28.2023 25.2576C25.8737 27.1489 22.9578 25.2472 24.2335 22.3472M41.6865 7C40.0048 7 38.5465 7.33305 37.202 7.67005C39.5581 8.6773 41.0165 9.91231 41.8004 10.4729C43.596 12.0407 44.6032 13.6129 46.3987 16.1923C46.7314 16.7529 47.2921 17.5368 47.6294 18.7674C47.9666 19.8885 47.9666 20.7863 47.9666 21.6841C47.9666 22.9191 47.8527 23.9264 47.7391 24.9336C47.6298 25.7219 47.6298 26.0592 47.52 26.2825C47.52 26.3964 47.52 26.5058 47.406 26.7292C47.406 27.2898 47.406 27.5175 47.52 27.9642C47.52 28.4109 47.6294 28.8619 47.6294 29.6458C47.7433 31.1042 47.7433 32.1115 47.52 33.3421V33.7932C47.2921 34.8004 47.0689 35.812 46.5084 36.7054C46.6223 36.9334 46.7317 37.0427 46.8457 37.266C47.4062 36.4821 47.8529 35.6982 48.2996 34.8048C49.6485 32.3348 50.4324 30.2064 50.9929 28.6386C52.0002 25.7219 52.5608 23.5891 52.898 22.0213C53.6819 18.6579 53.7958 17.0901 53.4586 15.2946C53.4586 14.734 53.2352 13.7223 52.6746 12.7151C51.4396 10.4729 49.5346 9.46557 48.1902 8.79116C47.2924 8.34446 44.936 7.10949 41.6865 7ZM17.3984 7.49488C16.1065 7.46945 14.5299 7.6131 12.7606 8.45395C12.2001 8.6815 10.5184 9.46557 9.17391 11.2568C8.27615 12.3779 7.60609 14.0596 7.26885 15.9646C6.93155 17.6463 6.81779 19.6696 7.49215 23.4797C7.93881 26.1686 8.38991 27.9642 9.28767 31.6604C9.40167 32.1115 10.0716 34.1304 11.5299 38.6149L11.6393 38.8382C11.8668 39.6221 12.537 41.3038 13.9953 42.9854C15.0026 44.1066 15.9004 44.781 16.6887 44.781H16.9078C18.3661 44.781 19.3778 43.6599 20.2712 42.7621C20.2712 42.6481 22.4039 40.0732 23.1878 39.1754C23.0738 39.0614 22.8552 39.0614 22.7411 38.9478C21.3967 38.1639 20.385 36.9333 19.6011 35.5844C18.2566 33.1188 18.3661 30.6533 18.5895 29.4182L18.7035 27.5176C18.2568 24.4871 18.3704 21.5747 18.931 18.6581C19.3777 16.1924 19.9383 13.7269 21.9528 11.1474C22.6272 10.2496 23.4111 9.4657 24.195 8.90514C22.4039 8.12124 20.4988 7.67018 18.5894 7.56068C18.2259 7.53102 17.8276 7.50377 17.3984 7.49488ZM31.4825 8.45395C30.922 8.45395 30.3614 8.45395 29.8009 8.56794C27.5586 9.01464 25.4302 10.2496 23.7485 12.378C22.0668 14.5108 21.6201 16.5253 21.1734 18.8814C20.9455 19.7792 20.9455 20.5631 20.8319 21.4609C21.5064 20.9003 22.4041 20.2259 23.7486 19.8887C24.5325 19.6654 26.5514 18.9953 28.2331 20.0027C28.7937 20.3399 29.5776 21.0143 30.3615 22.9193C32.0432 27.6272 30.3657 32.4489 30.1424 32.8956C30.0284 33.3423 29.8051 33.6795 29.6913 33.9029C29.468 34.4635 29.2446 34.9145 29.0213 35.8123C28.9073 36.5962 28.7937 37.2706 28.7937 38.0546C29.131 38.0546 29.4681 38.1639 29.801 38.3876C30.3615 38.9482 30.4754 39.7364 30.5892 40.0693C30.8126 41.8648 30.8126 44.1071 30.8126 46.3493C30.8126 48.1449 30.8126 49.8266 30.9219 50.9477C31.1494 53.5272 31.9335 55.3183 33.0546 56.2161C33.8386 56.8906 34.8458 56.8862 35.4064 57H35.634C37.3156 57 40.0046 55.8789 41.0118 54.3111C41.5724 53.4133 41.8001 52.6294 42.0235 51.5083C42.1375 50.8339 42.1328 50.501 42.2468 49.8265C42.2468 49.4892 42.3608 48.9288 42.3608 48.2587C42.3608 47.6982 42.4701 47.0238 42.5841 46.2355C42.6981 44.3305 43.0308 42.0925 43.1447 40.8576C43.2586 39.3992 43.9286 38.1643 44.4891 37.3804C43.7052 37.2664 42.9213 36.5964 42.4746 35.4753C41.8002 34.2403 41.6863 33.9031 41.5724 33.3425C41.4631 32.8958 41.2398 32.3353 40.4513 30.6536C38.7697 26.8435 38.5507 25.7224 38.5507 24.8246C38.4367 23.5896 38.3231 21.9123 39.6718 20.7912C41.6863 18.9956 44.2658 19.1095 45.6103 19.5562V19.3286C45.387 18.4352 44.9402 17.7608 44.603 17.3141C42.9213 14.7346 42.0235 13.3902 40.4513 12.0457C39.7813 11.4851 38.0996 10.1363 35.634 9.2429C34.5129 8.90561 33.1642 8.45395 31.4825 8.45395ZM43.8762 21.6009C43.0616 21.5441 42.0238 21.6839 41.1259 22.4724C40.6792 22.9191 40.6792 23.8169 40.7933 24.6008C40.7933 25.1613 40.9026 25.9453 42.5845 29.7597C43.3684 31.5509 43.5917 32.1115 43.7056 32.5626C43.8196 33.0092 43.9289 33.2326 44.6034 34.4632C44.7174 34.6908 44.8267 34.9143 45.0501 35.1376C45.2734 34.8003 45.3874 34.2399 45.4968 33.3421L45.6108 33.009C45.8341 32.0017 45.7248 31.2135 45.7248 29.869C45.7248 29.1946 45.6108 28.7479 45.6108 28.4107C45.4968 27.8501 45.4968 27.4034 45.4968 26.7289C45.2735 26.3917 45.2735 26.2822 45.3875 26.0545C45.3875 25.8312 45.4968 25.4983 45.6108 24.8239C45.7248 23.9262 45.8383 23.1422 45.8383 22.2445C45.6108 22.1305 45.501 22.0211 45.2778 21.9114C45.2778 21.9114 44.6864 21.6581 43.8762 21.6009ZM26.3455 22.0432C25.6317 21.9602 24.8127 22.1919 24.3091 22.3585C23.0741 22.6958 22.2946 23.4796 21.734 23.9263C21.3967 24.2636 21.0596 24.6007 20.7223 25.0474C20.7223 25.8314 20.8317 26.6197 20.9456 27.4036V27.5176L20.7223 29.7598C20.499 30.7671 20.3851 32.6721 21.5063 34.5771C22.0668 35.6983 22.8551 36.596 23.8624 37.1566C24.5368 37.6033 25.4302 37.9405 26.4375 38.1682C26.4375 37.38 26.5515 36.4822 26.665 35.6983C26.8883 34.5771 27.1117 34.0166 27.4489 33.3421C27.5629 33.0091 27.6722 32.786 27.9 32.4487C28.0094 32.1115 29.5773 27.8504 28.1191 23.9265C27.7865 23.0287 27.4491 22.4681 26.998 22.2447C26.8052 22.1308 26.5777 22.0695 26.3455 22.0432ZM46.5082 38.2776C45.9477 39.0616 45.1638 40.0732 45.0499 41.4177C45.0499 41.641 45.0499 41.755 44.9359 41.9782C45.8337 42.2015 46.622 42.2015 47.4059 42.0922C49.2015 41.8647 50.4321 40.9667 50.6554 40.7434C51.4393 40.1828 52.451 39.0617 52.2233 38.615C52.114 38.3917 51.7766 38.501 49.981 38.615C49.5343 38.615 48.1899 38.9523 47.2921 38.729H47.0688C46.8455 38.615 46.6221 38.5012 46.5082 38.2776ZM26.998 40.5199C26.7747 40.8572 26.4418 41.0805 26.2185 41.3038C25.3207 41.8644 24.1952 42.3154 23.0741 42.5388C22.0668 42.8761 21.5063 42.8761 21.5063 43.2132C21.3923 43.6599 22.5135 44.2205 23.0741 44.4438C24.9835 45.2277 26.8885 44.7811 27.2257 44.6671C27.4491 44.5531 28.0097 44.3299 28.5702 43.9927C28.5702 42.7621 28.4609 41.641 28.3469 40.7432V40.6292H28.233C27.8957 40.6292 27.4491 40.6334 26.998 40.5199Z" stroke="#EAFF00" stroke-width="4" stroke-linecap="round" stroke-linejoin="round"/>
<path d="M44.3419 22.0826C44.871 25.5222 43.019 26.0514 41.4315 25.5222M28.2023 25.2576C25.8737 27.1489 22.9578 25.2472 24.2335 22.3472M41.6866 7C40.0049 7 38.5465 7.33306 37.202 7.67006C39.5581 8.67732 41.0165 9.91232 41.8004 10.4729C43.596 12.0407 44.6032 13.6129 46.3987 16.1923C46.7314 16.7529 47.2921 17.5368 47.6294 18.7674C47.9666 19.8885 47.9666 20.7864 47.9666 21.6841C47.9666 22.9191 47.8527 23.9264 47.7391 24.9336C47.6298 25.7219 47.6298 26.0592 47.52 26.2825C47.52 26.3964 47.52 26.5058 47.406 26.7292C47.406 27.2898 47.406 27.5175 47.52 27.9642C47.52 28.4109 47.6294 28.8619 47.6294 29.6458C47.7433 31.1042 47.7433 32.1115 47.52 33.3421V33.7932C47.2921 34.8004 47.0689 35.812 46.5084 36.7054C46.6223 36.9334 46.7317 37.0427 46.8457 37.266C47.4062 36.4821 47.8529 35.6982 48.2996 34.8048C49.6485 32.3348 50.4324 30.2064 50.9929 28.6386C52.0002 25.7219 52.5608 23.5891 52.898 22.0213C53.6819 18.6579 53.7958 17.0901 53.4586 15.2946C53.4586 14.734 53.2352 13.7224 52.6746 12.7151C51.4396 10.4729 49.5346 9.46558 48.1902 8.79116C47.2924 8.34446 44.936 7.1095 41.6866 7ZM17.3984 7.49488C16.1065 7.46946 14.5299 7.6131 12.7606 8.45396C12.2001 8.6815 10.5184 9.46558 9.17391 11.2568C8.27615 12.3779 7.60609 14.0596 7.26885 15.9646C6.93155 17.6463 6.81779 19.6696 7.49215 23.4797C7.93881 26.1686 8.38991 27.9642 9.28767 31.6604C9.40167 32.1115 10.0716 34.1304 11.5299 38.6149L11.6393 38.8382C11.8668 39.6221 12.537 41.3038 13.9953 42.9854C15.0026 44.1066 15.9004 44.781 16.6887 44.781H16.9078C18.3661 44.781 19.3778 43.6599 20.2712 42.7621C20.2712 42.6481 22.4039 40.0732 23.1878 39.1754C23.0738 39.0614 22.8552 39.0614 22.7411 38.9478C21.3967 38.1639 20.385 36.9333 19.6011 35.5844C18.2566 33.1188 18.3661 30.6533 18.5895 29.4182L18.7035 27.5176C18.2568 24.4871 18.3704 21.5747 18.931 18.6581C19.3777 16.1925 19.9383 13.7269 21.9528 11.1474C22.6272 10.2497 23.4111 9.4657 24.195 8.90516C22.4039 8.12124 20.4988 7.67018 18.5894 7.5607C18.2259 7.53102 17.8276 7.50378 17.3984 7.49488ZM31.4825 8.45396C30.922 8.45396 30.3614 8.45396 29.8009 8.56794C27.5586 9.01464 25.4302 10.2497 23.7485 12.378C22.0668 14.5108 21.6201 16.5253 21.1734 18.8814C20.9455 19.7792 20.9455 20.5631 20.8319 21.4609C21.5064 20.9003 22.4041 20.2259 23.7486 19.8887C24.5325 19.6654 26.5514 18.9953 28.2331 20.0027C28.7937 20.34 29.5776 21.0143 30.3615 22.9193C32.0432 27.6272 30.3657 32.4489 30.1424 32.8956C30.0284 33.3423 29.8051 33.6795 29.6913 33.9029C29.468 34.4635 29.2446 34.9145 29.0213 35.8123C28.9073 36.5962 28.7937 37.2706 28.7937 38.0545C29.131 38.0545 29.4681 38.1639 29.801 38.3876C30.3615 38.9482 30.4754 39.7364 30.5892 40.0693C30.8126 41.8648 30.8126 44.1071 30.8126 46.3493C30.8126 48.1449 30.8126 49.8266 30.9219 50.9477C31.1494 53.5272 31.9335 55.3183 33.0546 56.2161C33.8386 56.8906 34.8458 56.8862 35.4064 57H35.634C37.3156 57 40.0046 55.8789 41.0118 54.3111C41.5724 53.4133 41.8001 52.6294 42.0235 51.5083C42.1375 50.8339 42.1328 50.501 42.2468 49.8266C42.2468 49.4893 42.3608 48.9288 42.3608 48.2587C42.3608 47.6982 42.4701 47.0238 42.5841 46.2355C42.6981 44.3305 43.0308 42.0925 43.1447 40.8576C43.2586 39.3992 43.9286 38.1643 44.4891 37.3804C43.7052 37.2664 42.9213 36.5964 42.4746 35.4753C41.8002 34.2403 41.6863 33.9031 41.5724 33.3425C41.4631 32.8958 41.2398 32.3353 40.4513 30.6536C38.7697 26.8435 38.5507 25.7224 38.5507 24.8246C38.4367 23.5896 38.3231 21.9123 39.6718 20.7912C41.6863 18.9956 44.2658 19.1095 45.6103 19.5562V19.3286C45.387 18.4352 44.9402 17.7608 44.603 17.3141C42.9213 14.7347 42.0235 13.3902 40.4513 12.0457C39.7813 11.4851 38.0996 10.1363 35.634 9.2429C34.5129 8.90562 33.1642 8.45396 31.4825 8.45396ZM43.8762 21.6009C43.0616 21.5441 42.0238 21.6839 41.1259 22.4724C40.6792 22.9191 40.6792 23.8169 40.7933 24.6008C40.7933 25.1613 40.9026 25.9453 42.5845 29.7597C43.3684 31.5509 43.5917 32.1115 43.7056 32.5626C43.8196 33.0092 43.9289 33.2326 44.6034 34.4632C44.7174 34.6908 44.8267 34.9143 45.0501 35.1376C45.2734 34.8003 45.3874 34.2399 45.4968 33.3421L45.6108 33.009C45.8341 32.0017 45.7248 31.2135 45.7248 29.869C45.7248 29.1946 45.6108 28.7479 45.6108 28.4107C45.4968 27.8501 45.4968 27.4034 45.4968 26.7289C45.2735 26.3917 45.2735 26.2822 45.3875 26.0545C45.3875 25.8312 45.4968 25.4983 45.6108 24.8239C45.7248 23.9262 45.8383 23.1422 45.8383 22.2445C45.6108 22.1305 45.501 22.0212 45.2778 21.9114C45.2778 21.9114 44.6864 21.6581 43.8762 21.6009ZM26.3455 22.0432C25.6317 21.9602 24.8127 22.192 24.3091 22.3585C23.0741 22.6958 22.2946 23.4796 21.734 23.9263C21.3967 24.2636 21.0596 24.6008 20.7223 25.0474C20.7223 25.8314 20.8317 26.6197 20.9456 27.4036V27.5176L20.7223 29.7598C20.499 30.7671 20.3851 32.6721 21.5063 34.5771C22.0668 35.6983 22.8551 36.596 23.8624 37.1566C24.5368 37.6033 25.4302 37.9405 26.4375 38.1682C26.4375 37.38 26.5515 36.4822 26.665 35.6983C26.8883 34.5771 27.1117 34.0166 27.4489 33.3421C27.5629 33.0091 27.6722 32.786 27.9 32.4487C28.0094 32.1115 29.5773 27.8504 28.1191 23.9265C27.7865 23.0287 27.4491 22.4681 26.998 22.2448C26.8052 22.1308 26.5777 22.0695 26.3455 22.0432ZM46.5082 38.2776C45.9477 39.0616 45.1638 40.0732 45.0499 41.4177C45.0499 41.641 45.0499 41.755 44.9359 41.9782C45.8337 42.2015 46.622 42.2015 47.4059 42.0922C49.2015 41.8647 50.4321 40.9667 50.6554 40.7434C51.4393 40.1828 52.451 39.0617 52.2233 38.615C52.114 38.3917 51.7766 38.501 49.981 38.615C49.5343 38.615 48.1899 38.9523 47.2921 38.729H47.0688C46.8455 38.615 46.6221 38.5012 46.5082 38.2776ZM26.998 40.5199C26.7747 40.8572 26.4418 41.0805 26.2185 41.3038C25.3207 41.8644 24.1952 42.3154 23.0741 42.5388C22.0668 42.8761 21.5063 42.8761 21.5063 43.2132C21.3923 43.6599 22.5135 44.2205 23.0741 44.4438C24.9835 45.2277 26.8885 44.7811 27.2257 44.6671C27.4491 44.5532 28.0097 44.3299 28.5702 43.9927C28.5702 42.7621 28.4609 41.641 28.3469 40.7432V40.6292H28.233C27.8957 40.6292 27.4491 40.6334 26.998 40.5199Z" stroke="black" stroke-width="2" stroke-linecap="round" stroke-linejoin="round"/>
<defs>
<filter id="filter0_f" x="0.43" y="0.43" width="59.7772" height="63.14" filterUnits="userSpaceOnUse" color-interpolation-filters="sRGB">
<feFlood flood-opacity="0" result="BackgroundImageFix"/>
<feBlend mode="normal" in="SourceGraphic" in2="BackgroundImageFix" result="shape"/>
<feGaussianBlur stdDeviation="1.785" result="effect1_foregroundBlur_212:19"/>
</filter>
</defs>
</svg>
