<svg width="122" height="66" viewBox="0 0 122 66" fill="none" xmlns="http://www.w3.org/2000/svg">
<g filter="url(#filter0_f)">
<path d="M99.3512 57.9833L114.246 33.1578L99.3512 8.33237" stroke="#EAFF00" stroke-opacity="0.8" stroke-width="6" stroke-linecap="round" stroke-linejoin="round"/>
</g>
<g filter="url(#filter1_f)">
<path d="M21.8953 8.33237L7 33.1578L21.8953 57.9833" stroke="#EAFF00" stroke-opacity="0.8" stroke-width="6" stroke-linecap="round" stroke-linejoin="round"/>
</g>
<g filter="url(#filter2_f)">
<path d="M57.312 33.8185C57.4422 33.7226 58.971 32.2117 58.971 32.2117L57.312 33.8185ZM57.312 33.8185C57.4715 35.3712 57.5983 36.9675 58.305 37.7906C59.3891 39.2135 60.9922 39.3453 63.0585 39.4592L71.2143 31.8324M58.9796 32.222C58.9796 32.222 67.3687 24.8897 68.0203 24.4814C69.8874 23.3117 72.2073 22.8953 73.9939 23.2444C75.1863 24.8813 74.3439 28.3751 72.2073 30.8394L71.2143 31.8324M71.2143 31.8324C71.0744 33.2475 71.6431 35.5901 70.2212 38.1425L47.0577 58" stroke="#EAFF00" stroke-opacity="0.8" stroke-width="6" stroke-linecap="round" stroke-linejoin="round"/>
</g>
<g filter="url(#filter3_f)">
<path d="M69.6708 38.7836C70.7049 38.1357 73.6359 35.6529 75.5505 35.2457M78.8765 37.3376C78.9074 39.3604 77.3571 42.3903 76.1793 43.7487M76.1793 43.7487C76.1793 45.0936 76.6787 47.9887 75.4155 50.6998C73.5376 53.938 72.5383 53.9962 69.2282 57.9683M76.1793 43.7487L68.6936 50.6998C66.6273 50.5859 65.0242 50.454 63.9401 49.0311C63.2701 47.7207 63.0713 46.2944 62.9118 44.7417" stroke="#EAFF00" stroke-opacity="0.8" stroke-width="6" stroke-linecap="round" stroke-linejoin="round"/>
</g>
<g filter="url(#filter4_f)">
<path d="M28.5145 42.7556L54.6359 20.9092C55.9844 19.9162 59.6303 18.7823 61.0846 19.2723C62.2771 20.9092 61.4346 24.403 59.298 26.8673L58.305 27.8604M58.305 27.8604C58.305 29.1383 58.8286 29.8464 57.441 31.8324L28.5145 56.27M58.305 27.8604L50.1493 35.4871C48.083 35.3733 46.4799 35.2414 45.3958 33.8185C44.689 32.9955 44.5622 31.3991 44.4028 29.8464" stroke="#EAFF00" stroke-opacity="0.8" stroke-width="6" stroke-linecap="round" stroke-linejoin="round"/>
</g>
<g filter="url(#filter5_f)">
<path d="M80.6945 8C81.7658 8.76874 83.7351 9.48812 83.7351 9.48812M87.4972 10.5878C87.5762 10.831 82.4881 28.6697 82.5127 28.6071L79.5728 27.9122C79.5728 27.9122 82.4881 28.609 82.4881 28.6697C82.4875 36.0503 74.9548 41.2 72.3673 40.3211C72.3673 40.3211 75.9722 35.3453 76.1793 34.2699C77.0408 29.3188 78.4305 29.6488 79.6083 27.8604L83.753 9.47483C86.7384 10.9032 90.5091 10.8522 92.2617 10.5802L93.0607 8" stroke="#EAFF00" stroke-opacity="0.8" stroke-width="6" stroke-linecap="round" stroke-linejoin="round"/>
</g>
<path d="M99.3512 57.9833L114.246 33.1578L99.3512 8.33237" stroke="#EAFF00" stroke-width="4" stroke-linecap="round" stroke-linejoin="round"/>
<path d="M21.8953 8.33237L7 33.1578L21.8953 57.9833" stroke="#EAFF00" stroke-width="4" stroke-linecap="round" stroke-linejoin="round"/>
<path d="M57.312 33.8185C57.4422 33.7226 58.971 32.2117 58.971 32.2117L57.312 33.8185ZM57.312 33.8185C57.4715 35.3712 57.5983 36.9675 58.305 37.7906C59.3891 39.2135 60.9923 39.3453 63.0585 39.4592L71.2143 31.8324M57.5578 32.0403C57.7986 31.8266 58.9796 32.222 58.9796 32.222C58.9796 32.222 67.3687 24.8897 68.0203 24.4814C69.8874 23.3117 72.2073 22.8953 73.9939 23.2444C75.1863 24.8813 74.3439 28.3751 72.2073 30.8394L71.2143 31.8324M71.2143 31.8324C71.0744 33.2475 71.6431 35.5901 70.2212 38.1425L47.0577 58" stroke="#EAFF00" stroke-width="4" stroke-linecap="round" stroke-linejoin="round"/>
<path d="M69.6708 38.7836C70.7049 38.1357 73.6359 35.6529 75.5505 35.2457M78.8764 37.3376C78.9074 39.3604 77.3571 42.3903 76.1794 43.7487M76.1794 43.7487C76.1794 45.0936 76.6787 47.9887 75.4155 50.6998C73.5376 53.938 72.5383 53.9962 69.2282 57.9683M76.1794 43.7487L68.6936 50.6998C66.6273 50.5859 65.0242 50.454 63.9401 49.0311C63.2701 47.7207 63.0713 46.2944 62.9118 44.7417" stroke="#EAFF00" stroke-width="4" stroke-linecap="round" stroke-linejoin="round"/>
<path d="M28.5145 42.7556L54.6359 20.9092C55.9844 19.9162 59.6303 18.7823 61.0846 19.2723C62.2771 20.9092 61.4346 24.403 59.298 26.8673L58.305 27.8604M58.305 27.8604C58.305 29.1383 58.8286 29.8464 57.441 31.8324L28.5145 56.27M58.305 27.8604L50.1493 35.4871C48.083 35.3733 46.4799 35.2414 45.3958 33.8185C44.689 32.9955 44.5622 31.3991 44.4028 29.8464" stroke="#EAFF00" stroke-width="4" stroke-linecap="round" stroke-linejoin="round"/>
<path d="M80.6945 8C81.7658 8.76874 83.7351 9.48812 83.7351 9.48812M87.4972 10.5878C87.5762 10.831 82.4881 28.6697 82.5127 28.6071L79.5728 27.9122C79.5728 27.9122 82.4881 28.609 82.4881 28.6697C82.4874 36.0503 74.9548 41.2 72.3673 40.3211C72.3673 40.3211 75.9722 35.3453 76.1793 34.2699C77.0408 29.3188 78.4305 29.6488 79.6083 27.8604L83.753 9.47483C86.7384 10.9032 90.5091 10.8522 92.2617 10.5802L93.0607 8" stroke="#EAFF00" stroke-width="4" stroke-linecap="round" stroke-linejoin="round"/>
<path d="M99.3512 57.9833L114.246 33.1578L99.3512 8.33237" stroke="black" stroke-width="2" stroke-linecap="round" stroke-linejoin="round"/>
<path d="M21.8953 8.33237L7 33.1578L21.8953 57.9833" stroke="black" stroke-width="2" stroke-linecap="round" stroke-linejoin="round"/>
<path d="M57.312 33.8185C57.4422 33.7227 58.971 32.2116 58.971 32.2116L57.312 33.8185ZM57.312 33.8185C57.4715 35.3712 57.5983 36.9676 58.305 37.7906C59.3891 39.2135 60.9923 39.3453 63.0585 39.4592L71.2143 31.8324M57.5578 32.0403C57.7986 31.8266 58.9796 32.222 58.9796 32.222C58.9796 32.222 67.3687 24.8897 68.0203 24.4814C69.8874 23.3117 72.2073 22.8953 73.9939 23.2444C75.1863 24.8813 74.3439 28.3751 72.2073 30.8394L71.2143 31.8324M71.2143 31.8324C71.0744 33.2475 71.6431 35.5901 70.2212 38.1425L47.0577 58" stroke="black" stroke-width="2" stroke-linecap="round" stroke-linejoin="round"/>
<path d="M69.6708 38.7836C70.7049 38.1357 73.6359 35.6529 75.5505 35.2457M78.8764 37.3376C78.9074 39.3604 77.3571 42.3903 76.1794 43.7487M76.1794 43.7487C76.1794 45.0936 76.6787 47.9887 75.4155 50.6998C73.5376 53.938 72.5383 53.9962 69.2282 57.9683M76.1794 43.7487L68.6936 50.6998C66.6273 50.5859 65.0242 50.454 63.9401 49.0311C63.2701 47.7207 63.0713 46.2944 62.9118 44.7417" stroke="black" stroke-width="2" stroke-linecap="round" stroke-linejoin="round"/>
<path d="M28.5145 42.7556L54.6359 20.9092C55.9844 19.9162 59.6303 18.7823 61.0846 19.2723C62.2771 20.9092 61.4346 24.403 59.298 26.8673L58.305 27.8604M58.305 27.8604C58.305 29.1383 58.8286 29.8464 57.441 31.8324L28.5145 56.27M58.305 27.8604L50.1493 35.4871C48.083 35.3733 46.4799 35.2414 45.3958 33.8185C44.689 32.9955 44.5622 31.3991 44.4028 29.8464" stroke="black" stroke-width="2" stroke-linecap="round" stroke-linejoin="round"/>
<path d="M80.6945 8C81.7658 8.76874 83.7351 9.48812 83.7351 9.48812M87.4972 10.5878C87.5762 10.831 82.4881 28.6697 82.5127 28.6071L79.5728 27.9122C79.5728 27.9122 82.4881 28.609 82.4881 28.6697C82.4874 36.0503 74.9548 41.2 72.3673 40.3211C72.3673 40.3211 75.9722 35.3453 76.1793 34.2699C77.0408 29.3188 78.4305 29.6488 79.6083 27.8604L83.753 9.47483C86.7384 10.9032 90.5091 10.8522 92.2617 10.5802L93.0607 8" stroke="black" stroke-width="2" stroke-linecap="round" stroke-linejoin="round"/>
<defs>
<filter id="filter0_f" x="92.3507" y="1.33191" width="28.8957" height="63.6518" filterUnits="userSpaceOnUse" color-interpolation-filters="sRGB">
<feFlood flood-opacity="0" result="BackgroundImageFix"/>
<feBlend mode="normal" in="SourceGraphic" in2="BackgroundImageFix" result="shape"/>
<feGaussianBlur stdDeviation="2" result="effect1_foregroundBlur"/>
</filter>
<filter id="filter1_f" x="0" y="1.33191" width="28.8957" height="63.6518" filterUnits="userSpaceOnUse" color-interpolation-filters="sRGB">
<feFlood flood-opacity="0" result="BackgroundImageFix"/>
<feBlend mode="normal" in="SourceGraphic" in2="BackgroundImageFix" result="shape"/>
<feGaussianBlur stdDeviation="2" result="effect1_foregroundBlur"/>
</filter>
<filter id="filter2_f" x="39.9151" y="15.9822" width="41.7647" height="49.1604" filterUnits="userSpaceOnUse" color-interpolation-filters="sRGB">
<feFlood flood-opacity="0" result="BackgroundImageFix"/>
<feBlend mode="normal" in="SourceGraphic" in2="BackgroundImageFix" result="shape"/>
<feGaussianBlur stdDeviation="2.07125" result="effect1_foregroundBlur"/>
</filter>
<filter id="filter3_f" x="55.7691" y="28.1026" width="30.2503" height="37.0083" filterUnits="userSpaceOnUse" color-interpolation-filters="sRGB">
<feFlood flood-opacity="0" result="BackgroundImageFix"/>
<feBlend mode="normal" in="SourceGraphic" in2="BackgroundImageFix" result="shape"/>
<feGaussianBlur stdDeviation="2.07125" result="effect1_foregroundBlur"/>
</filter>
<filter id="filter4_f" x="21.3719" y="12.0117" width="47.3986" height="51.4009" filterUnits="userSpaceOnUse" color-interpolation-filters="sRGB">
<feFlood flood-opacity="0" result="BackgroundImageFix"/>
<feBlend mode="normal" in="SourceGraphic" in2="BackgroundImageFix" result="shape"/>
<feGaussianBlur stdDeviation="2.07125" result="effect1_foregroundBlur"/>
</filter>
<filter id="filter5_f" x="65.2248" y="0.856702" width="34.9792" height="46.7049" filterUnits="userSpaceOnUse" color-interpolation-filters="sRGB">
<feFlood flood-opacity="0" result="BackgroundImageFix"/>
<feBlend mode="normal" in="SourceGraphic" in2="BackgroundImageFix" result="shape"/>
<feGaussianBlur stdDeviation="2.07125" result="effect1_foregroundBlur"/>
</filter>
</defs>
</svg>
