<svg width="89" height="70" viewBox="0 0 89 70" fill="none" xmlns="http://www.w3.org/2000/svg">
<g filter="url(#filter0_f)">
<path d="M10 10.0256L26.2341 10.0256H24.098" stroke="#F0FF4C" stroke-opacity="0.8" stroke-width="6" stroke-linecap="round" stroke-linejoin="round"/>
</g>
<g filter="url(#filter1_f)">
<path d="M10 17.9291L26.2341 17.9291H24.098" stroke="#F0FF4C" stroke-opacity="0.8" stroke-width="6" stroke-linecap="round" stroke-linejoin="round"/>
</g>
<g filter="url(#filter2_f)">
<path d="M10 50.44H36.0786C47.3069 50.44 47.9036 49.2796 51.6533 45.2964" stroke="#F0FF4C" stroke-opacity="0.8" stroke-width="6" stroke-linecap="round" stroke-linejoin="round"/>
</g>
<g filter="url(#filter3_f)">
<path d="M78.8185 59.9925H64.3304C58.8973 59.9925 53.4643 60.3599 49.8423 55.951" stroke="#F0FF4C" stroke-opacity="0.8" stroke-width="6" stroke-linecap="round" stroke-linejoin="round"/>
</g>
<g filter="url(#filter4_f)">
<path d="M78.8185 54.8489H64.3304C58.8973 54.8489 53.4643 54.8489 49.8423 53.3792" stroke="#F0FF4C" stroke-opacity="0.8" stroke-width="6" stroke-linecap="round" stroke-linejoin="round"/>
</g>
<g filter="url(#filter5_f)">
<path d="M10 26.1914H36.0786C47.3069 26.1914 47.9036 27.3518 51.6533 31.335" stroke="#F0FF4C" stroke-opacity="0.8" stroke-width="6" stroke-linecap="round" stroke-linejoin="round"/>
</g>
<g filter="url(#filter6_f)">
<path d="M10 34.2743H36.0786C45.4959 34.2743 47.6691 35.3765 51.6533 37.2135" stroke="#F0FF4C" stroke-opacity="0.8" stroke-width="6" stroke-linecap="round" stroke-linejoin="round"/>
</g>
<g filter="url(#filter7_f)">
<path d="M10 42.3571H36.0786C45.4959 42.3571 47.6691 41.2549 51.6533 39.4179" stroke="#F0FF4C" stroke-opacity="0.8" stroke-width="6" stroke-linecap="round" stroke-linejoin="round"/>
</g>
<path d="M10 10H26.2991" stroke="#EAFF00" stroke-width="4" stroke-linecap="round" stroke-linejoin="round"/>
<path d="M10 18.0829H26.2991" stroke="#EAFF00" stroke-width="4" stroke-linecap="round" stroke-linejoin="round"/>
<path d="M10 50.4144H36.0786C47.3069 50.4144 47.9036 49.254 51.6533 45.2707" stroke="#EAFF00" stroke-width="4" stroke-linecap="round" stroke-linejoin="round"/>
<path d="M78.8185 59.9669H64.3304C58.8973 59.9669 53.4643 60.3343 49.8423 55.9254" stroke="#EAFF00" stroke-width="4" stroke-linecap="round" stroke-linejoin="round"/>
<path d="M78.8185 54.8232H64.3304C58.8973 54.8232 53.4643 54.8232 49.8423 53.3536" stroke="#EAFF00" stroke-width="4" stroke-linecap="round" stroke-linejoin="round"/>
<path d="M10 26.1657H36.0786C47.3069 26.1657 47.9036 27.3262 51.6533 31.3094" stroke="#EAFF00" stroke-width="4" stroke-linecap="round" stroke-linejoin="round"/>
<path d="M10 34.2486H36.0786C45.4959 34.2486 47.6691 35.3508 51.6533 37.1879" stroke="#EAFF00" stroke-width="4" stroke-linecap="round" stroke-linejoin="round"/>
<path d="M10 42.3315H36.0786C45.4959 42.3315 47.6691 41.2293 51.6533 39.3923" stroke="#EAFF00" stroke-width="4" stroke-linecap="round" stroke-linejoin="round"/>
<path d="M10 10.0256H26.2991" stroke="black" stroke-width="2" stroke-linecap="round" stroke-linejoin="round"/>
<path d="M10 18.1085H26.2991" stroke="black" stroke-width="2" stroke-linecap="round" stroke-linejoin="round"/>
<path d="M10 50.44H36.0786C47.3069 50.44 47.9036 49.2796 51.6533 45.2964" stroke="black" stroke-width="2" stroke-linecap="round" stroke-linejoin="round"/>
<path d="M78.8185 59.9925H64.3304C58.8973 59.9925 53.4643 60.3599 49.8423 55.951" stroke="black" stroke-width="2" stroke-linecap="round" stroke-linejoin="round"/>
<path d="M78.8185 54.8489H64.3304C58.8973 54.8489 53.4643 54.8489 49.8423 53.3792" stroke="black" stroke-width="2" stroke-linecap="round" stroke-linejoin="round"/>
<path d="M10 26.1914H36.0786C47.3069 26.1914 47.9036 27.3518 51.6533 31.335" stroke="black" stroke-width="2" stroke-linecap="round" stroke-linejoin="round"/>
<path d="M10 34.2743H36.0786C45.4959 34.2743 47.6691 35.3765 51.6533 37.2135" stroke="black" stroke-width="2" stroke-linecap="round" stroke-linejoin="round"/>
<path d="M10 42.3571H36.0786C45.4959 42.3571 47.6691 41.2549 51.6533 39.4179" stroke="black" stroke-width="2" stroke-linecap="round" stroke-linejoin="round"/>
<defs>
<filter id="filter0_f" x="0.743548" y="0.769183" width="34.747" height="18.5129" filterUnits="userSpaceOnUse" color-interpolation-filters="sRGB">
<feFlood flood-opacity="0" result="BackgroundImageFix"/>
<feBlend mode="normal" in="SourceGraphic" in2="BackgroundImageFix" result="shape"/>
<feGaussianBlur stdDeviation="3.12823" result="effect1_foregroundBlur"/>
</filter>
<filter id="filter1_f" x="0.743548" y="8.67263" width="34.747" height="18.5129" filterUnits="userSpaceOnUse" color-interpolation-filters="sRGB">
<feFlood flood-opacity="0" result="BackgroundImageFix"/>
<feBlend mode="normal" in="SourceGraphic" in2="BackgroundImageFix" result="shape"/>
<feGaussianBlur stdDeviation="3.12823" result="effect1_foregroundBlur"/>
</filter>
<filter id="filter2_f" x="0.743548" y="36.0399" width="60.1662" height="23.6566" filterUnits="userSpaceOnUse" color-interpolation-filters="sRGB">
<feFlood flood-opacity="0" result="BackgroundImageFix"/>
<feBlend mode="normal" in="SourceGraphic" in2="BackgroundImageFix" result="shape"/>
<feGaussianBlur stdDeviation="3.12823" result="effect1_foregroundBlur"/>
</filter>
<filter id="filter3_f" x="40.5857" y="46.6945" width="47.4892" height="22.5632" filterUnits="userSpaceOnUse" color-interpolation-filters="sRGB">
<feFlood flood-opacity="0" result="BackgroundImageFix"/>
<feBlend mode="normal" in="SourceGraphic" in2="BackgroundImageFix" result="shape"/>
<feGaussianBlur stdDeviation="3.12823" result="effect1_foregroundBlur"/>
</filter>
<filter id="filter4_f" x="40.585" y="44.122" width="47.4899" height="19.9833" filterUnits="userSpaceOnUse" color-interpolation-filters="sRGB">
<feFlood flood-opacity="0" result="BackgroundImageFix"/>
<feBlend mode="normal" in="SourceGraphic" in2="BackgroundImageFix" result="shape"/>
<feGaussianBlur stdDeviation="3.12823" result="effect1_foregroundBlur"/>
</filter>
<filter id="filter5_f" x="0.743548" y="16.9349" width="60.1662" height="23.6566" filterUnits="userSpaceOnUse" color-interpolation-filters="sRGB">
<feFlood flood-opacity="0" result="BackgroundImageFix"/>
<feBlend mode="normal" in="SourceGraphic" in2="BackgroundImageFix" result="shape"/>
<feGaussianBlur stdDeviation="3.12823" result="effect1_foregroundBlur"/>
</filter>
<filter id="filter6_f" x="0.743548" y="25.0178" width="60.1669" height="21.4529" filterUnits="userSpaceOnUse" color-interpolation-filters="sRGB">
<feFlood flood-opacity="0" result="BackgroundImageFix"/>
<feBlend mode="normal" in="SourceGraphic" in2="BackgroundImageFix" result="shape"/>
<feGaussianBlur stdDeviation="3.12823" result="effect1_foregroundBlur"/>
</filter>
<filter id="filter7_f" x="0.743548" y="30.1607" width="60.1669" height="21.4529" filterUnits="userSpaceOnUse" color-interpolation-filters="sRGB">
<feFlood flood-opacity="0" result="BackgroundImageFix"/>
<feBlend mode="normal" in="SourceGraphic" in2="BackgroundImageFix" result="shape"/>
<feGaussianBlur stdDeviation="3.12823" result="effect1_foregroundBlur"/>
</filter>
</defs>
</svg>
