<svg width="66" height="66" viewBox="0 0 66 66" fill="none" xmlns="http://www.w3.org/2000/svg">
<g filter="url(#filter0_f)">
<path d="M58 8H8V58H58V8Z" stroke="#F0FF4C" stroke-opacity="0.8" stroke-width="6" stroke-linecap="round" stroke-linejoin="round"/>
</g>
<path d="M58 8H8V58H58V8Z" stroke="#EAFF00" stroke-width="4" stroke-linecap="round" stroke-linejoin="round"/>
<path d="M58 8H8V58H58V8Z" stroke="black" stroke-width="2" stroke-linecap="round" stroke-linejoin="round"/>
<g filter="url(#filter1_f)">
<path d="M24.2559 41.3366L25.0897 38.4548L25.0846 38.4533L24.2559 41.3366ZM21.0918 39.8073L19.0504 42.0057L19.0606 42.0151L19.0709 42.0244L21.0918 39.8073ZM21.3115 35.0612L23.2103 37.3838L23.2122 37.3823L21.3115 35.0612ZM26.8047 34.5778L25.4722 37.2657L25.4813 37.2701L26.8047 34.5778ZM28.4043 35.984L25.8631 37.5785L25.8687 37.5874L25.8743 37.5963L28.4043 35.984ZM28.9756 37.944V40.944H31.9756V37.944H28.9756ZM27.2793 37.944H24.2793V40.944H27.2793V37.944ZM26.541 36.1247L24.5283 38.3493L24.5356 38.3559L24.543 38.3625L26.541 36.1247ZM22.5068 36.0104L24.359 38.3704L24.3629 38.3673L22.5068 36.0104ZM22.4717 38.8581L20.5602 41.1703L20.5769 41.1841L20.5938 41.1977L22.4717 38.8581ZM24.7305 39.8424L23.9168 42.73L23.921 42.7312L24.7305 39.8424ZM27.2266 40.8356L25.6683 43.3992L25.683 43.4081L25.6978 43.4169L27.2266 40.8356ZM28.5625 42.0924L25.9873 43.6313L25.9941 43.6428L26.0011 43.6543L28.5625 42.0924ZM27.7891 46.2848L29.6165 48.664L29.6273 48.6556L27.7891 46.2848ZM22.085 46.7155L20.8626 49.4552L20.8714 49.4591L20.8803 49.463L22.085 46.7155ZM20.3184 45.3268L17.8607 47.0472L17.8664 47.0554L17.8722 47.0636L20.3184 45.3268ZM19.7031 43.3317V40.3317H16.7031V43.3317H19.7031ZM21.3994 43.3317H24.3994V40.3317H21.3994V43.3317ZM22.252 45.1686L20.3867 47.5183L20.4001 47.5289L20.4135 47.5393L22.252 45.1686ZM26.6465 42.3561L24.7916 44.714L24.8014 44.7217L24.8112 44.7293L26.6465 42.3561ZM25.0846 38.4533C23.8171 38.089 23.2769 37.7397 23.1127 37.5901L19.0709 42.0244C20.2309 43.0819 21.8001 43.7522 23.4271 44.2198L25.0846 38.4533ZM23.1332 37.6089C23.103 37.5809 23.0918 37.5655 23.091 37.5644C23.0906 37.5638 23.0959 37.5714 23.102 37.5853C23.1048 37.5916 23.1069 37.5976 23.1085 37.6027C23.1093 37.6051 23.1098 37.6071 23.1102 37.6085C23.1106 37.6099 23.1107 37.6106 23.1107 37.6105C23.1107 37.6105 23.1099 37.6066 23.1091 37.5983C23.1083 37.5899 23.1074 37.5764 23.1074 37.5573H17.1074C17.1074 39.2873 17.7867 40.8322 19.0504 42.0057L23.1332 37.6089ZM23.1074 37.5573C23.1074 37.5053 23.1125 37.4796 23.1137 37.4738C23.1148 37.4689 23.1142 37.4732 23.1105 37.4808C23.1069 37.4883 23.1065 37.4862 23.117 37.4733C23.1281 37.4595 23.1556 37.4285 23.2103 37.3838L19.4127 32.7386C17.9363 33.9456 17.1074 35.6197 17.1074 37.5573H23.1074ZM23.2122 37.3823C23.3684 37.2544 23.6951 37.068 24.458 37.068V31.068C22.6428 31.068 20.8718 31.5438 19.4109 32.7401L23.2122 37.3823ZM24.458 37.068C24.9435 37.068 25.2585 37.1597 25.4722 37.2656L28.1371 31.8899C26.9798 31.3162 25.7303 31.068 24.458 31.068V37.068ZM25.4813 37.2701C25.7203 37.3876 25.8112 37.4958 25.8631 37.5785L30.9455 34.3896C30.2474 33.277 29.2719 32.4477 28.128 31.8854L25.4813 37.2701ZM25.8743 37.5963C25.9481 37.712 25.9756 37.806 25.9756 37.944H31.9756C31.9756 36.6641 31.6222 35.4514 30.9343 34.3718L25.8743 37.5963ZM28.9756 34.944H27.2793V40.944H28.9756V34.944ZM30.2793 37.944C30.2793 36.4776 29.7801 34.9949 28.5391 33.8869L24.543 38.3625C24.45 38.2795 24.3657 38.1623 24.3149 38.0371C24.2687 37.9232 24.2793 37.875 24.2793 37.944H30.2793ZM28.5538 33.9001C27.3412 32.803 25.8341 32.4567 24.458 32.4567V38.4567C24.6638 38.4567 24.7428 38.4829 24.735 38.4804C24.7293 38.4785 24.7025 38.4693 24.6623 38.4466C24.6213 38.4236 24.5747 38.3913 24.5283 38.3493L28.5538 33.9001ZM24.458 32.4567C23.2138 32.4567 21.8225 32.7308 20.6508 33.6535L24.3629 38.3673C24.3095 38.4094 24.2606 38.4384 24.2228 38.457C24.1858 38.4754 24.1643 38.4814 24.1652 38.4812C24.171 38.4795 24.2578 38.4567 24.458 38.4567V32.4567ZM20.6547 33.6504C19.3842 34.6475 18.8125 36.0702 18.8125 37.5309H24.8125C24.8125 37.5644 24.8054 37.7113 24.715 37.9092C24.6205 38.1162 24.4828 38.2732 24.359 38.3704L20.6547 33.6504ZM18.8125 37.5309C18.8125 39.0376 19.5045 40.2975 20.5602 41.1703L24.3831 36.5458C24.4378 36.591 24.5602 36.7101 24.6641 36.9193C24.7717 37.1359 24.8125 37.3551 24.8125 37.5309H18.8125ZM20.5938 41.1977C21.5262 41.946 22.7618 42.4045 23.9168 42.73L25.5441 36.9549C25.1039 36.8308 24.7864 36.7168 24.5689 36.622C24.3393 36.522 24.2962 36.4757 24.3495 36.5185L20.5938 41.1977ZM23.921 42.7312C24.8583 42.9938 25.3992 43.2356 25.6683 43.3992L28.7848 38.272C27.8587 37.7091 26.7355 37.2887 25.5399 36.9537L23.921 42.7312ZM25.6978 43.4169C25.9781 43.5828 26.0137 43.6755 25.9873 43.6313L31.1377 40.5536C30.5371 39.5485 29.6821 38.8032 28.7553 38.2543L25.6978 43.4169ZM26.0011 43.6543C25.9885 43.6335 25.9858 43.6208 25.988 43.6292C25.9908 43.6402 26.002 43.689 26.002 43.7887H32.002C32.002 42.6747 31.746 41.5509 31.1239 40.5306L26.0011 43.6543ZM26.002 43.7887C26.002 43.8526 25.9958 43.8854 25.994 43.8939C25.9924 43.9012 25.9933 43.8941 26.0004 43.8794C26.0076 43.8647 26.0139 43.8569 26.0128 43.8583C26.0109 43.8606 25.9941 43.8804 25.9508 43.914L29.6273 48.6556C31.1804 47.4514 32.002 45.7384 32.002 43.7887H26.002ZM25.9616 43.9057C25.8259 44.0099 25.4544 44.2165 24.5459 44.2165V50.2165C26.3444 50.2165 28.1351 49.8019 29.6165 48.664L25.9616 43.9057ZM24.5459 44.2165C24.0577 44.2165 23.6502 44.1261 23.2896 43.968L20.8803 49.463C22.0431 49.9729 23.2763 50.2165 24.5459 50.2165V44.2165ZM23.3073 43.9758C22.9561 43.8191 22.8227 43.672 22.7645 43.59L17.8722 47.0636C18.6461 48.1535 19.6904 48.9322 20.8626 49.4552L23.3073 43.9758ZM22.7761 43.6064C22.7337 43.546 22.7031 43.4868 22.7031 43.3317H16.7031C16.7031 44.6649 17.0827 45.9358 17.8607 47.0472L22.7761 43.6064ZM19.7031 46.3317H21.3994V40.3317H19.7031V46.3317ZM18.3994 43.3317C18.3994 44.951 19.0488 46.4562 20.3867 47.5183L24.1172 42.8189C24.171 42.8617 24.2645 42.9589 24.3338 43.1081C24.4003 43.2514 24.3994 43.3457 24.3994 43.3317H18.3994ZM20.4135 47.5393C21.6584 48.5047 23.1348 48.8366 24.5459 48.8366V42.8366C24.2976 42.8366 24.1568 42.8073 24.0948 42.7892C24.04 42.7732 24.0519 42.7681 24.0904 42.798L20.4135 47.5393ZM24.5459 48.8366C25.7871 48.8366 27.2179 48.5918 28.4172 47.6739L24.7703 42.9094C24.8978 42.8118 24.9826 42.7937 24.9544 42.8012C24.9202 42.8103 24.7951 42.8366 24.5459 42.8366V48.8366ZM28.4172 47.6739C29.6747 46.7113 30.3057 45.3139 30.3057 43.8063H24.3057C24.3057 43.7348 24.3212 43.5622 24.4224 43.3512C24.5257 43.1356 24.6661 42.9892 24.7703 42.9094L28.4172 47.6739ZM30.3057 43.8063C30.3057 42.3867 29.7571 40.9693 28.4817 39.983L24.8112 44.7293C24.6631 44.6147 24.5114 44.4385 24.4098 44.215C24.3133 44.0027 24.3057 43.8446 24.3057 43.8063H30.3057ZM28.5013 39.9982C27.5726 39.2677 26.2866 38.8011 25.0897 38.4548L23.422 44.2184C23.9235 44.3635 24.2891 44.4935 24.5424 44.6015C24.8155 44.7179 24.86 44.7678 24.7916 44.714L28.5013 39.9982ZM40.3574 44.2545L43.1026 45.4646L43.1055 45.4579L40.3574 44.2545ZM38.7051 46.3463L36.9671 43.9011L33.6937 46.2276L36.8532 48.7066L38.7051 46.3463ZM40.9902 48.1393L43.0258 50.3431L45.6131 47.9533L42.8421 45.7791L40.9902 48.1393ZM39.8389 49.2028L37.9723 51.5514L39.9854 53.1514L41.8744 51.4066L39.8389 49.2028ZM37.1406 47.0583L39.0072 44.7097L37.8487 43.7889L36.413 44.1478L37.1406 47.0583ZM33.124 46.4782L31.5085 49.006L31.5153 49.0104L31.522 49.0146L33.124 46.4782ZM31.3047 44.36L28.5844 45.6249L28.5892 45.6353L28.5942 45.6458L31.3047 44.36ZM30.6455 41.1696H27.6455V41.1841L27.6456 41.1987L30.6455 41.1696ZM33.0977 34.8239L34.7132 37.3517L34.718 37.3486L33.0977 34.8239ZM38.5029 34.8151L36.8874 37.343L36.896 37.3484L38.5029 34.8151ZM40.3135 36.9684L37.5777 38.1995L37.5806 38.2059L40.3135 36.9684ZM38.3535 36.7487L35.9288 38.5153L35.9359 38.5251L35.9432 38.5348L38.3535 36.7487ZM33.2734 36.7399L30.8796 34.9316L30.8776 34.9343L33.2734 36.7399ZM32.333 40.1149L29.3332 40.0783L29.333 40.0966V40.1149H32.333ZM33.2471 44.5182L30.815 46.2747L30.823 46.2857L33.2471 44.5182ZM38.3359 44.5973L40.7296 46.4058L40.7359 46.3973L38.3359 44.5973ZM39.2588 41.1784L42.2586 41.2139L42.2588 41.1962V41.1784H39.2588ZM37.9463 41.0553C37.9463 41.9827 37.7982 42.6199 37.6094 43.0511L43.1055 45.4579C43.7018 44.0962 43.9463 42.6006 43.9463 41.0553H37.9463ZM37.6123 43.0445C37.4113 43.5005 37.1843 43.7467 36.9671 43.9011L40.4431 48.7916C41.6438 47.9382 42.5184 46.7899 43.1026 45.4646L37.6123 43.0445ZM36.8532 48.7066L39.1384 50.4995L42.8421 45.7791L40.5569 43.9861L36.8532 48.7066ZM38.9547 45.9355L37.8033 46.999L41.8744 51.4066L43.0258 50.3431L38.9547 45.9355ZM41.7055 46.8542L39.0072 44.7097L35.274 49.4068L37.9723 51.5514L41.7055 46.8542ZM36.413 44.1478C36.2468 44.1894 36.0471 44.2165 35.8047 44.2165V50.2165C36.4998 50.2165 37.1907 50.1381 37.8682 49.9687L36.413 44.1478ZM35.8047 44.2165C35.309 44.2165 34.9814 44.103 34.726 43.9417L31.522 49.0146C32.8252 49.8377 34.2848 50.2165 35.8047 50.2165V44.2165ZM34.7396 43.9503C34.4787 43.7836 34.231 43.5293 34.0152 43.0743L28.5942 45.6458C29.2455 47.0189 30.2108 48.1767 31.5085 49.006L34.7396 43.9503ZM34.025 43.0952C33.8083 42.629 33.6537 42.0003 33.6454 41.1405L27.6456 41.1987C27.6607 42.7529 27.9456 44.2512 28.5844 45.6249L34.025 43.0952ZM33.6455 41.1696V40.2467H27.6455V41.1696H33.6455ZM33.6455 40.2467C33.6455 39.3644 33.7981 38.7128 34.0194 38.2248L28.5548 35.7471C27.9206 37.1459 27.6455 38.6682 27.6455 40.2467H33.6455ZM34.0194 38.2248C34.2371 37.7446 34.4803 37.5006 34.7132 37.3517L31.4821 32.296C30.1564 33.1433 29.1926 34.3407 28.5548 35.7471L34.0194 38.2248ZM34.718 37.3486C34.9808 37.18 35.3057 37.068 35.7871 37.068V31.068C34.2529 31.068 32.7848 31.4599 31.4773 32.2991L34.718 37.3486ZM35.7871 37.068C36.3139 37.068 36.6448 37.1879 36.8874 37.3429L40.1185 32.2872C38.8025 31.4462 37.3229 31.068 35.7871 31.068V37.068ZM36.896 37.3484C37.1339 37.4993 37.3702 37.7384 37.5777 38.1995L43.0492 35.7373C42.413 34.3234 41.4423 33.127 40.1099 32.2818L36.896 37.3484ZM37.5806 38.2059C37.7921 38.6729 37.9463 39.3247 37.9463 40.2379H43.9463C43.9463 38.6551 43.6786 37.1272 43.0463 35.7309L37.5806 38.2059ZM37.9463 40.2379V41.0553H43.9463V40.2379H37.9463ZM42.2588 40.2292C42.2588 38.3776 41.896 36.4904 40.7639 34.9626L35.9432 38.5348C36.0181 38.6359 36.2588 39.069 36.2588 40.2292H42.2588ZM40.7782 34.9821C39.5552 33.3035 37.7514 32.5182 35.7871 32.5182V38.5182C35.8815 38.5182 35.9371 38.5269 35.9619 38.5321C35.9852 38.5369 35.9836 38.5391 35.9667 38.531C35.949 38.5225 35.9312 38.5108 35.9183 38.4998C35.9061 38.4895 35.9108 38.4905 35.9288 38.5153L40.7782 34.9821ZM35.7871 32.5182C33.8289 32.5182 32.0873 33.333 30.8797 34.9316L35.6672 38.5482C35.6955 38.5107 35.7101 38.4992 35.7072 38.5017C35.7033 38.5049 35.6915 38.5136 35.6746 38.5218C35.6581 38.5299 35.6514 38.5303 35.6627 38.5278C35.6751 38.5252 35.7142 38.5182 35.7871 38.5182V32.5182ZM30.8776 34.9343C29.7514 36.4288 29.3554 38.2599 29.3332 40.0783L35.3328 40.1515C35.3458 39.0871 35.5768 38.6682 35.6693 38.5454L30.8776 34.9343ZM29.333 40.1149V41.0553H35.333V40.1149H29.333ZM29.333 41.0553C29.333 42.9017 29.7133 44.7492 30.815 46.2747L35.6791 42.7617C35.5621 42.5997 35.333 42.1387 35.333 41.0553H29.333ZM30.823 46.2857C32.0314 47.9429 33.8056 48.7838 35.8047 48.7838V42.7838C35.7259 42.7838 35.6831 42.7763 35.6685 42.7731C35.6553 42.7702 35.6615 42.7702 35.6784 42.7786C35.6958 42.7872 35.708 42.7964 35.7121 42.7999C35.7152 42.8026 35.7001 42.7905 35.6711 42.7507L30.823 46.2857ZM35.8047 48.7838C37.7274 48.7838 39.503 48.0292 40.7295 46.4058L35.9423 42.7888C35.926 42.8104 35.9225 42.8104 35.9349 42.8002C35.948 42.7895 35.9651 42.7786 35.9816 42.7708C35.9973 42.7634 35.998 42.7658 35.9747 42.7705C35.9502 42.7756 35.8959 42.7838 35.8047 42.7838V48.7838ZM40.7359 46.3973C41.8615 44.8966 42.237 43.0376 42.2586 41.2139L36.259 41.1428C36.2455 42.284 36.0057 42.7043 35.9359 42.7973L40.7359 46.3973ZM42.2588 41.1784V40.2292H36.2588V41.1784H42.2588ZM45.2441 45.6608H42.2441V48.6608H45.2441V45.6608ZM51.3086 45.6608H54.3086V42.6608H51.3086V45.6608ZM51.3086 47.0407V50.0407H54.3086V47.0407H51.3086ZM43.5479 47.0407H40.5479V50.0407H43.5479V47.0407ZM43.5479 34.2438V31.2438H40.5479V34.2438H43.5479ZM45.2441 34.2438H48.2441V31.2438H45.2441V34.2438ZM45.2441 48.6608H51.3086V42.6608H45.2441V48.6608ZM48.3086 45.6608V47.0407H54.3086V45.6608H48.3086ZM51.3086 44.0407H43.5479V50.0407H51.3086V44.0407ZM46.5479 47.0407V34.2438H40.5479V47.0407H46.5479ZM43.5479 37.2438H45.2441V31.2438H43.5479V37.2438ZM42.2441 34.2438V45.6608H48.2441V34.2438H42.2441Z" fill="#F0FF4C" fill-opacity="0.8"/>
</g>
<path d="M24.3096 41.3283L24.8655 39.4071L24.8621 39.4061L24.3096 41.3283ZM21.1455 39.799L19.7846 41.2646L19.7914 41.2709L19.7982 41.2771L21.1455 39.799ZM21.3652 35.0529L22.6311 36.6013L22.6323 36.6003L21.3652 35.0529ZM26.8584 34.5695L25.9701 36.3614L25.9762 36.3644L26.8584 34.5695ZM28.458 35.9758L26.7638 37.0388L26.7714 37.0506L28.458 35.9758ZM29.0293 37.9357V39.9357H31.0293V37.9357H29.0293ZM27.333 37.9357H25.333V39.9357H27.333V37.9357ZM26.5947 36.1164L25.2529 37.5995L25.2627 37.6083L26.5947 36.1164ZM22.5605 36.0021L23.7953 37.5755L23.7979 37.5734L22.5605 36.0021ZM22.5254 38.8498L21.2511 40.3913L21.2622 40.4005L21.2735 40.4095L22.5254 38.8498ZM24.7842 39.8342L24.2418 41.7592L24.2445 41.76L24.7842 39.8342ZM27.2803 40.8273L26.2414 42.5364L26.2513 42.5423L26.2611 42.5482L27.2803 40.8273ZM28.6162 42.0842L26.8994 43.1101L26.904 43.1178L26.9086 43.1254L28.6162 42.0842ZM27.8428 46.2766L29.0611 47.8627L29.0683 47.8571L27.8428 46.2766ZM22.1387 46.7072L21.3238 48.5337L21.3356 48.5389L22.1387 46.7072ZM20.3721 45.3185L18.7336 46.4655L18.7413 46.4764L20.3721 45.3185ZM19.7568 43.3234V41.3234H17.7568V43.3234H19.7568ZM21.4531 43.3234H23.4531V41.3234H21.4531V43.3234ZM22.3057 45.1603L21.0622 46.7268L21.0711 46.7338L21.08 46.7408L22.3057 45.1603ZM26.7002 42.3478L25.4636 43.9197L25.4701 43.9249L25.4767 43.9299L26.7002 42.3478ZM24.8621 39.4061C23.5346 39.0246 22.8229 38.6218 22.4928 38.3209L19.7982 41.2771C20.7923 42.1832 22.19 42.8 23.757 43.2505L24.8621 39.4061ZM22.5064 38.3334C22.2551 38.1001 22.1611 37.88 22.1611 37.549H18.1611C18.1611 38.9993 18.7234 40.2792 19.7846 41.2646L22.5064 38.3334ZM22.1611 37.549C22.1611 37.1611 22.2775 36.8904 22.6311 36.6013L20.0994 33.5045C18.8475 34.5279 18.1611 35.9213 18.1611 37.549H22.1611ZM22.6323 36.6003C23.006 36.2943 23.5734 36.0598 24.5117 36.0598V32.0598C22.8719 32.0598 21.3416 32.4873 20.0981 33.5055L22.6323 36.6003ZM24.5117 36.0598C25.1284 36.0598 25.5991 36.1775 25.9701 36.3614L27.7467 32.7776C26.7466 32.2819 25.6529 32.0598 24.5117 32.0598V36.0598ZM25.9762 36.3644C26.366 36.556 26.6043 36.7844 26.7639 37.0388L30.1521 34.9128C29.5617 33.9718 28.7337 33.2627 27.7406 32.7746L25.9762 36.3644ZM26.7714 37.0506C26.9475 37.327 27.0293 37.6074 27.0293 37.9357H31.0293C31.0293 36.8461 30.7302 35.8199 30.1446 34.9009L26.7714 37.0506ZM29.0293 35.9357H27.333V39.9357H29.0293V35.9357ZM29.333 37.9357C29.333 36.7003 28.9182 35.5097 27.9268 34.6245L25.2627 37.6083C25.2827 37.6262 25.2881 37.6352 25.2952 37.6529C25.3054 37.678 25.333 37.7608 25.333 37.9357H29.333ZM27.9366 34.6333C26.9641 33.7535 25.7279 33.4484 24.5117 33.4484V37.4484C25.0885 37.4484 25.241 37.5887 25.2529 37.5995L27.9366 34.6333ZM24.5117 33.4484C23.4049 33.4484 22.2605 33.6927 21.3232 34.4309L23.7979 37.5734C23.7981 37.5733 23.9545 37.4484 24.5117 37.4484V33.4484ZM21.3258 34.4288C20.3245 35.2146 19.8662 36.3321 19.8662 37.5226H23.8662C23.8662 37.4785 23.8701 37.4572 23.8708 37.454C23.8712 37.4516 23.8689 37.464 23.8591 37.4855C23.849 37.5075 23.8354 37.5297 23.8201 37.549C23.805 37.5679 23.7944 37.5762 23.7953 37.5755L21.3258 34.4288ZM19.8662 37.5226C19.8662 38.7009 20.4008 39.6883 21.2511 40.3913L23.7997 37.3083C23.7629 37.2779 23.7896 37.2901 23.8222 37.3559C23.8377 37.387 23.8497 37.4209 23.8574 37.4544C23.8649 37.4875 23.8662 37.5116 23.8662 37.5226H19.8662ZM21.2735 40.4095C22.0435 41.0276 23.1182 41.4426 24.2418 41.7592L25.3266 37.9091C24.329 37.628 23.8979 37.3869 23.7773 37.2901L21.2735 40.4095ZM24.2445 41.76C25.2249 42.0347 25.8628 42.3062 26.2414 42.5364L28.3191 39.1183C27.5025 38.6219 26.4763 38.2313 25.3238 37.9083L24.2445 41.76ZM26.2611 42.5482C26.6491 42.778 26.8213 42.9794 26.8994 43.1101L30.333 41.0583C29.8369 40.228 29.1185 39.5915 28.2994 39.1065L26.2611 42.5482ZM26.9086 43.1254C26.9822 43.246 27.0557 43.4392 27.0557 43.7805H31.0557C31.0557 42.8209 30.8362 41.8833 30.3238 41.043L26.9086 43.1254ZM27.0557 43.7805C27.0557 44.2092 26.9295 44.4539 26.6173 44.696L29.0683 47.8571C30.3732 46.8453 31.0557 45.4259 31.0557 43.7805H27.0557ZM26.6245 44.6904C26.2644 44.967 25.6564 45.2082 24.5996 45.2082V49.2082C26.2498 49.2082 27.8039 48.8283 29.0611 47.8627L26.6245 44.6904ZM24.5996 45.2082C23.9812 45.2082 23.4361 45.0923 22.9418 44.8755L21.3356 48.5389C22.3647 48.9901 23.4602 49.2082 24.5996 49.2082V45.2082ZM22.9536 44.8808C22.4655 44.663 22.1803 44.4106 22.0028 44.1607L18.7413 46.4764C19.3959 47.3983 20.2884 48.0717 21.3238 48.5337L22.9536 44.8808ZM22.0105 44.1716C21.8456 43.936 21.7568 43.6749 21.7568 43.3234H17.7568C17.7568 44.4603 18.0782 45.5292 18.7336 46.4655L22.0105 44.1716ZM19.7568 45.3234H21.4531V41.3234H19.7568V45.3234ZM19.4531 43.3234C19.4531 44.6608 19.9808 45.8683 21.0622 46.7268L23.5491 43.5939C23.5166 43.5681 23.5004 43.5498 23.4932 43.5408C23.4863 43.5323 23.483 43.5264 23.4804 43.5208C23.4774 43.5143 23.4531 43.4617 23.4531 43.3234H19.4531ZM21.08 46.7408C22.1013 47.5328 23.3405 47.8283 24.5996 47.8283V43.8283C23.9485 43.8283 23.6584 43.6785 23.5313 43.5799L21.08 46.7408ZM24.5996 47.8283C25.7239 47.8283 26.9054 47.6046 27.8631 46.8715L25.4318 43.6952C25.4403 43.6887 25.2565 43.8283 24.5996 43.8283V47.8283ZM27.8631 46.8715C28.8596 46.1087 29.3594 45.0121 29.3594 43.798H25.3594C25.3594 43.8285 25.3565 43.8375 25.3582 43.8297C25.36 43.8211 25.3654 43.8012 25.3779 43.7752C25.3904 43.7489 25.4055 43.7263 25.4195 43.7095C25.433 43.6932 25.4397 43.6892 25.4318 43.6952L27.8631 46.8715ZM29.3594 43.798C29.3594 42.6426 28.9204 41.5366 27.9237 40.7657L25.4767 43.9299C25.4679 43.9232 25.4492 43.9069 25.4274 43.8797C25.4054 43.8522 25.3871 43.822 25.3738 43.7929C25.3461 43.7319 25.3594 43.7191 25.3594 43.798H29.3594ZM27.9368 40.7759C27.1712 40.1736 26.0482 39.7493 24.8654 39.4071L23.7537 43.2495C24.8796 43.5753 25.3503 43.8306 25.4636 43.9197L27.9368 40.7759ZM40.4111 44.2463L42.2412 45.053L42.2432 45.0485L40.4111 44.2463ZM38.7588 46.3381L37.6001 44.7079L35.4179 46.2589L37.5242 47.9116L38.7588 46.3381ZM41.0439 48.131L42.401 49.6002L44.1259 48.007L42.2785 46.5576L41.0439 48.131ZM39.8926 49.1945L38.6482 50.7602L39.9903 51.8269L41.2496 50.6637L39.8926 49.1945ZM37.1943 47.05L38.4387 45.4843L37.6664 44.8704L36.7093 45.1097L37.1943 47.05ZM33.1777 46.4699L32.1007 48.1552L32.1097 48.1609L33.1777 46.4699ZM31.3584 44.3517L29.5449 45.195L29.5481 45.202L29.5514 45.2089L31.3584 44.3517ZM30.6992 41.1613H28.6992V41.171L28.6993 41.1807L30.6992 41.1613ZM33.1514 34.8156L34.2284 36.5008L34.2316 36.4988L33.1514 34.8156ZM38.5566 34.8068L37.4796 36.4921L37.4853 36.4957L38.5566 34.8068ZM40.3672 36.9601L38.5433 37.7809L38.5453 37.7852L40.3672 36.9601ZM38.4072 36.7404L36.7908 37.9181L36.7955 37.9247L36.8003 37.9311L38.4072 36.7404ZM33.3271 36.7316L31.7313 35.5261L31.7299 35.5279L33.3271 36.7316ZM32.3867 40.1066L30.3869 40.0822L30.3867 40.0944V40.1066H32.3867ZM33.3008 44.5099L31.6794 45.6809L31.6848 45.6883L33.3008 44.5099ZM38.3896 44.5891L39.9854 45.7947L39.9896 45.7891L38.3896 44.5891ZM39.3125 41.1701L41.3124 41.1938L41.3125 41.182V41.1701H39.3125ZM39 41.0471C39 42.0774 38.8358 42.8577 38.5791 43.444L42.2432 45.0485C42.7716 43.8419 43 42.4893 43 41.0471H39ZM38.581 43.4396C38.3162 44.0404 37.9813 44.437 37.6001 44.7079L39.9174 47.9683C40.9543 47.2313 41.7209 46.2334 42.2412 45.053L38.581 43.4396ZM37.5242 47.9116L39.8094 49.7045L42.2785 46.5576L39.9934 44.7646L37.5242 47.9116ZM39.6869 46.6619L38.5356 47.7253L41.2496 50.6637L42.401 49.6002L39.6869 46.6619ZM41.137 47.6288L38.4387 45.4843L35.9499 48.6157L38.6482 50.7602L41.137 47.6288ZM36.7093 45.1097C36.4578 45.1726 36.1763 45.2082 35.8584 45.2082V49.2082C36.478 49.2082 37.0871 49.1384 37.6794 48.9903L36.7093 45.1097ZM35.8584 45.2082C35.192 45.2082 34.6758 45.0505 34.2457 44.7789L32.1097 48.1609C33.2383 48.8737 34.5092 49.2082 35.8584 49.2082V45.2082ZM34.2548 44.7847C33.8211 44.5075 33.4538 44.1026 33.1654 43.4946L29.5514 45.2089C30.1302 46.429 30.9758 47.4362 32.1007 48.1551L34.2548 44.7847ZM33.1719 43.5085C32.8849 42.8911 32.7086 42.1175 32.6991 41.1419L28.6993 41.1807C28.7133 42.6192 28.9765 43.9725 29.5449 45.195L33.1719 43.5085ZM32.6992 41.1613V40.2385H28.6992V41.1613H32.6992ZM32.6992 40.2385C32.6992 39.2401 32.8722 38.4434 33.1623 37.8036L29.5193 36.1518C28.9539 37.3988 28.6992 38.7759 28.6992 40.2385H32.6992ZM33.1623 37.8036C33.4501 37.169 33.8134 36.7661 34.2284 36.5008L32.0743 33.1304C30.9308 33.8612 30.087 34.8997 29.5193 36.1518L33.1623 37.8036ZM34.2316 36.4988C34.6685 36.2184 35.184 36.0598 35.8408 36.0598V32.0598C34.4821 32.0598 33.2045 32.405 32.0711 33.1324L34.2316 36.4988ZM35.8408 36.0598C36.5357 36.0598 37.0581 36.2227 37.4796 36.4921L39.6337 33.1216C38.4966 32.3949 37.2084 32.0598 35.8408 32.0598V36.0598ZM37.4853 36.4957C37.9057 36.7623 38.2644 37.161 38.5433 37.7809L42.191 36.1394C41.6262 34.8843 40.7779 33.8474 39.6279 33.1179L37.4853 36.4957ZM38.5453 37.7852C38.8269 38.407 39 39.2048 39 40.2297H43C43 38.7584 42.7513 37.3766 42.1891 36.1351L38.5453 37.7852ZM39 40.2297V41.0471H43V40.2297H39ZM41.3125 40.2209C41.3125 38.4846 40.97 36.8397 40.0141 35.5497L36.8003 37.9311C37.0515 38.2701 37.3125 38.9455 37.3125 40.2209H41.3125ZM40.0237 35.5627C39.0092 34.1702 37.5214 33.5099 35.8408 33.5099V37.5099C36.3868 37.5099 36.61 37.67 36.7908 37.9181L40.0237 35.5627ZM35.8408 33.5099C34.1818 33.5099 32.7415 34.1889 31.7313 35.5261L34.923 37.9371C35.1433 37.6455 35.3787 37.5099 35.8408 37.5099V33.5099ZM31.7299 35.5279C30.776 36.7938 30.4075 38.3895 30.3869 40.0822L34.3866 40.131C34.4011 38.941 34.6596 38.2867 34.9244 37.9353L31.7299 35.5279ZM30.3867 40.1066V41.0471H34.3867V40.1066H30.3867ZM30.3867 41.0471C30.3867 42.7662 30.7418 44.3827 31.6794 45.6809L34.9221 43.339C34.641 42.9497 34.3867 42.2576 34.3867 41.0471H30.3867ZM31.6848 45.6883C32.6954 47.0743 34.1624 47.7756 35.8584 47.7756V43.7756C35.3747 43.7756 35.1366 43.6331 34.9168 43.3316L31.6848 45.6883ZM35.8584 47.7756C37.5035 47.7756 38.9685 47.1406 39.9854 45.7947L36.7939 43.3834C36.6155 43.6195 36.393 43.7756 35.8584 43.7756V47.7756ZM39.9896 45.7891C40.9392 44.5229 41.2921 42.9037 41.3124 41.1938L37.3126 41.1464C37.2978 42.4013 37.0354 43.0614 36.7896 43.3891L39.9896 45.7891ZM41.3125 41.1701V40.2209H37.3125V41.1701H41.3125ZM45.2979 45.6525H43.2979V47.6525H45.2979V45.6525ZM51.3623 45.6525H53.3623V43.6525H51.3623V45.6525ZM51.3623 47.0324V49.0324H53.3623V47.0324H51.3623ZM43.6016 47.0324H41.6016V49.0324H43.6016V47.0324ZM43.6016 34.2355V32.2355H41.6016V34.2355H43.6016ZM45.2979 34.2355H47.2979V32.2355H45.2979V34.2355ZM45.2979 47.6525H51.3623V43.6525H45.2979V47.6525ZM49.3623 45.6525V47.0324H53.3623V45.6525H49.3623ZM51.3623 45.0324H43.6016V49.0324H51.3623V45.0324ZM45.6016 47.0324V34.2355H41.6016V47.0324H45.6016ZM43.6016 36.2355H45.2979V32.2355H43.6016V36.2355ZM43.2979 34.2355V45.6525H47.2979V34.2355H43.2979Z" fill="#EAFF00"/>
<path d="M24.2626 41.2959L24.5406 40.3353L24.5389 40.3348L24.2626 41.2959ZM21.0986 39.7666L20.4181 40.4994L20.4249 40.5057L21.0986 39.7666ZM21.3183 35.0205L21.9512 35.7947L21.9518 35.7942L21.3183 35.0205ZM26.8115 34.5371L26.3673 35.4331L26.3703 35.4346L26.8115 34.5371ZM28.4111 35.9434L27.564 36.4749L27.5678 36.4808L28.4111 35.9434ZM28.9824 37.9033V38.9033H29.9824V37.9033H28.9824ZM27.2861 37.9033H26.2861V38.9033H27.2861V37.9033ZM26.5478 36.084L25.8769 36.8255L25.8818 36.8299L26.5478 36.084ZM22.5136 35.9697L23.131 36.7564L23.1323 36.7554L22.5136 35.9697ZM22.4785 38.8174L21.8413 39.5881L21.8469 39.5927L21.8525 39.5972L22.4785 38.8174ZM24.7372 39.8018L24.466 40.7643L24.4674 40.7647L24.7372 39.8018ZM27.2333 40.7949L26.7139 41.6495L26.7238 41.6553L27.2333 40.7949ZM28.5693 42.0518L27.7108 42.5647L27.7155 42.5724L28.5693 42.0518ZM27.7958 46.2441L28.405 47.0372L28.4086 47.0344L27.7958 46.2441ZM22.0917 46.6748L21.6843 47.5881L21.6902 47.5906L22.0917 46.6748ZM20.3251 45.2861L19.5059 45.8596L19.5098 45.8651L20.3251 45.2861ZM19.7099 43.291V42.291H18.7099V43.291H19.7099ZM21.4062 43.291H22.4062V42.291H21.4062V43.291ZM22.2587 45.1279L21.637 45.9112L21.6459 45.9181L22.2587 45.1279ZM26.6533 42.3154L26.035 43.1014L26.0415 43.1065L26.6533 42.3154ZM24.5389 40.3348C23.1515 39.936 22.2683 39.4798 21.7722 39.0275L20.4249 40.5057C21.253 41.2605 22.4792 41.8237 23.9864 42.257L24.5389 40.3348ZM21.779 39.0338C21.3253 38.6125 21.1142 38.1274 21.1142 37.5166H19.1142C19.1142 38.687 19.5594 39.702 20.4181 40.4994L21.779 39.0338ZM21.1142 37.5166C21.1142 36.8187 21.3731 36.2674 21.9512 35.7947L20.6854 34.2463C19.6581 35.0861 19.1142 36.1989 19.1142 37.5166H21.1142ZM21.9518 35.7942C22.543 35.3102 23.3511 35.0273 24.4648 35.0273V33.0273C23.0003 33.0273 21.7108 33.4066 20.6848 34.2468L21.9518 35.7942ZM24.4648 35.0273C25.2126 35.0273 25.839 35.1712 26.3673 35.4331L27.2556 33.6412C26.4128 33.2234 25.4748 33.0273 24.4648 33.0273V35.0273ZM26.3703 35.4346C26.9109 35.7003 27.2967 36.0488 27.564 36.4749L29.2581 35.4119C28.7754 34.6426 28.0948 34.0536 27.2526 33.6397L26.3703 35.4346ZM27.5678 36.4808C27.8462 36.9178 27.9824 37.3847 27.9824 37.9033H29.9824C29.9824 37.004 29.7376 36.1642 29.2544 35.4059L27.5678 36.4808ZM28.9824 36.9033H27.2861V38.9033H28.9824V36.9033ZM28.2861 37.9033C28.2861 36.8989 27.9556 36.0004 27.2138 35.338L25.8818 36.8299C26.1243 37.0465 26.2861 37.3609 26.2861 37.9033H28.2861ZM27.2187 35.3424C26.4864 34.6799 25.5211 34.416 24.4648 34.416V36.416C25.2014 36.416 25.6248 36.5975 25.8769 36.8255L27.2187 35.3424ZM24.4648 34.416C23.4953 34.416 22.598 34.6304 21.8949 35.1841L23.1323 36.7554C23.3667 36.5707 23.7702 36.416 24.4648 36.416V34.416ZM21.8962 35.1831C21.1641 35.7576 20.8193 36.5698 20.8193 37.4902H22.8193C22.8193 37.1099 22.9373 36.9084 23.131 36.7564L21.8962 35.1831ZM20.8193 37.4902C20.8193 38.3401 21.1964 39.055 21.8413 39.5881L23.1156 38.0466C22.8816 37.8532 22.8193 37.6833 22.8193 37.4902H20.8193ZM21.8525 39.5972C22.4602 40.085 23.374 40.4566 24.466 40.7643L25.0085 38.8392C23.9794 38.5493 23.3874 38.2646 23.1044 38.0375L21.8525 39.5972ZM24.4674 40.7647C25.4908 41.0514 26.2258 41.3527 26.7139 41.6494L27.7528 39.9404C27.0456 39.5106 26.1165 39.1497 25.0071 38.8388L24.4674 40.7647ZM26.7238 41.6553C27.2195 41.949 27.5283 42.2591 27.7109 42.5647L29.4277 41.5388C29.0361 40.8835 28.4542 40.3557 27.7429 39.9345L26.7238 41.6553ZM27.7155 42.5724C27.8987 42.8729 28.0087 43.2522 28.0087 43.748H30.0087C30.0087 42.9431 29.8258 42.1916 29.4231 41.5312L27.7155 42.5724ZM28.0087 43.748C28.0087 44.481 27.7435 45.0193 27.1831 45.4539L28.4086 47.0344C29.4653 46.215 30.0087 45.0893 30.0087 43.748H28.0087ZM27.1867 45.4511C26.6024 45.8999 25.7579 46.1758 24.5527 46.1758V48.1758C26.0545 48.1758 27.3721 47.8306 28.405 47.0372L27.1867 45.4511ZM24.5527 46.1758C23.804 46.1758 23.1213 46.0343 22.4933 45.759L21.6902 47.5906C22.5856 47.9832 23.5435 48.1758 24.5527 48.1758V46.1758ZM22.4992 45.7616C21.8743 45.4828 21.4373 45.1252 21.1405 44.7072L19.5098 45.8651C20.045 46.619 20.7857 47.1871 21.6843 47.588L22.4992 45.7616ZM21.1444 44.7127C20.8568 44.3019 20.7099 43.8388 20.7099 43.291H18.7099C18.7099 44.2315 18.9731 45.0985 19.5059 45.8596L21.1444 44.7127ZM19.7099 44.291H21.4062V42.291H19.7099V44.291ZM20.4062 43.291C20.4062 44.3464 20.8121 45.2563 21.637 45.9112L22.8805 44.3447C22.5686 44.0972 22.4062 43.7825 22.4062 43.291H20.4062ZM21.6459 45.9181C22.4437 46.5368 23.4456 46.7959 24.5527 46.7959V44.7959C23.7496 44.7959 23.2222 44.6097 22.8716 44.3377L21.6459 45.9181ZM24.5527 46.7959C25.5601 46.7959 26.4922 46.5932 27.2083 46.0451L25.9927 44.4569C25.7596 44.6353 25.3264 44.7959 24.5527 44.7959V46.7959ZM27.2083 46.0451C27.9439 45.482 28.3124 44.6861 28.3124 43.7656H26.3124C26.3124 44.099 26.2063 44.2934 25.9927 44.4569L27.2083 46.0451ZM28.3124 43.7656C28.3124 42.8744 27.9831 42.0797 27.265 41.5244L26.0415 43.1065C26.2023 43.2308 26.3124 43.4029 26.3124 43.7656H28.3124ZM27.2715 41.5295C26.669 41.0555 25.7091 40.6734 24.5406 40.3353L23.9847 42.2565C25.1248 42.5864 25.7586 42.884 26.035 43.1014L27.2715 41.5295ZM40.3642 44.2139L41.2792 44.6172L41.2802 44.615L40.3642 44.2139ZM38.7119 46.3057L38.1325 45.4906L37.0414 46.2661L38.0946 47.0924L38.7119 46.3057ZM40.997 48.0986L41.6755 48.8332L42.538 48.0366L41.6143 47.3119L40.997 48.0986ZM39.8456 49.1621L39.2234 49.945L39.8945 50.4783L40.5242 49.8967L39.8456 49.1621ZM37.1474 47.0176L37.7696 46.2347L37.3834 45.9278L36.9049 46.0474L37.1474 47.0176ZM33.1308 46.4375L32.5923 47.2801L32.5968 47.283L33.1308 46.4375ZM31.3115 44.3193L30.4047 44.741L30.408 44.7479L31.3115 44.3193ZM30.6523 41.1289H29.6522L29.6523 41.1386L30.6523 41.1289ZM33.1044 34.7832L33.6429 35.6258L33.6446 35.6248L33.1044 34.7832ZM38.5097 34.7744L37.9712 35.617L37.9741 35.6189L38.5097 34.7744ZM40.3203 36.9277L39.4083 37.3381L39.4093 37.3402L40.3203 36.9277ZM38.3603 36.708L37.552 37.2969L37.5568 37.3034L38.3603 36.708ZM33.2802 36.6992L32.4823 36.0965L32.4816 36.0974L33.2802 36.6992ZM32.3398 40.0742L31.3398 40.062V40.0742H32.3398ZM33.2538 44.4775L32.4432 45.063L32.4458 45.0667L33.2538 44.4775ZM38.3427 44.5566L39.1406 45.1595L39.1427 45.1566L38.3427 44.5566ZM39.2656 41.1377L40.2656 41.1496V41.1377H39.2656ZM39.9531 41.0146C39.9531 42.148 39.7728 43.0713 39.4482 43.8127L41.2802 44.615C41.7407 43.5634 41.9531 42.354 41.9531 41.0146H39.9531ZM39.4491 43.8105C39.1204 44.5563 38.6776 45.1032 38.1325 45.4906L39.2912 47.1208C40.1641 46.5003 40.8228 45.6527 41.2792 44.6172L39.4491 43.8105ZM38.0946 47.0924L40.3797 48.8854L41.6143 47.3119L39.3291 45.5189L38.0946 47.0924ZM40.3185 47.364L39.1671 48.4275L40.5242 49.8967L41.6755 48.8332L40.3185 47.364ZM40.4678 48.3793L37.7696 46.2347L36.5252 47.8004L39.2234 49.945L40.4678 48.3793ZM36.9049 46.0474C36.5682 46.1316 36.2048 46.1758 35.8115 46.1758V48.1758C36.3557 48.1758 36.8828 48.1145 37.3899 47.9877L36.9049 46.0474ZM35.8115 46.1758C34.9744 46.1758 34.2695 45.9739 33.6648 45.592L32.5968 47.283C33.5507 47.8855 34.6329 48.1758 35.8115 48.1758V46.1758ZM33.6693 45.5949C33.0628 45.2073 32.576 44.6518 32.215 43.8908L30.408 44.7479C30.9141 45.815 31.6402 46.6716 32.5923 47.2801L33.6693 45.5949ZM32.2182 43.8977C31.8608 43.1291 31.6628 42.2105 31.6522 41.1192L29.6523 41.1386C29.6652 42.4614 29.9066 43.6698 30.4047 44.741L32.2182 43.8977ZM31.6523 41.1289V40.2061H29.6523V41.1289H31.6523ZM31.6523 40.2061C31.6523 39.0916 31.8457 38.1498 32.2046 37.3583L30.3831 36.5324C29.8866 37.6275 29.6523 38.8596 29.6523 40.2061H31.6523ZM32.2046 37.3583C32.5624 36.5693 33.0458 36.0075 33.6429 35.6258L32.5659 33.9406C31.6045 34.555 30.8809 35.4346 30.3831 36.5324L32.2046 37.3583ZM33.6446 35.6248C34.2556 35.2326 34.9615 35.0273 35.7939 35.0273V33.0273C34.6106 33.0273 33.5236 33.326 32.5643 33.9416L33.6446 35.6248ZM35.7939 35.0273C36.657 35.0273 37.3708 35.2333 37.9712 35.617L39.0482 33.9318C38.09 33.3194 36.9933 33.0273 35.7939 33.0273V35.0273ZM37.9741 35.6189C38.5768 36.0012 39.0579 36.5594 39.4083 37.3381L41.2322 36.5174C40.7388 35.4211 40.0129 34.5437 39.0454 33.93L37.9741 35.6189ZM39.4093 37.3402C39.761 38.117 39.9531 39.0608 39.9531 40.1973H41.9531C41.9531 38.8376 41.7232 37.6018 41.2312 36.5152L39.4093 37.3402ZM39.9531 40.1973V41.0146H41.9531V40.1973H39.9531ZM40.2656 40.1885C40.2656 38.5674 39.9435 37.1649 39.1637 36.1126L37.5568 37.3034C37.9842 37.8801 38.2656 38.7978 38.2656 40.1885H40.2656ZM39.1685 36.1191C38.3624 35.0127 37.1908 34.4775 35.7939 34.4775V36.4775C36.6235 36.4775 37.1628 36.7627 37.5521 37.2969L39.1685 36.1191ZM35.7939 34.4775C34.4341 34.4775 33.295 35.0206 32.4823 36.0965L34.0781 37.302C34.4959 36.7489 35.0326 36.4775 35.7939 36.4775V34.4775ZM32.4816 36.0974C31.6999 37.1346 31.359 38.4949 31.3399 40.062L33.3397 40.0864C33.3558 38.7707 33.6417 37.881 34.0788 37.3011L32.4816 36.0974ZM31.3398 40.0742V41.0146H33.3398V40.0742H31.3398ZM31.3398 41.0146C31.3398 42.6067 31.6697 43.992 32.4432 45.063L34.0645 43.892C33.6193 43.2755 33.3398 42.3523 33.3398 41.0146H31.3398ZM32.4458 45.0667C33.2588 46.1816 34.4185 46.7432 35.8115 46.7432V44.7432C35.0247 44.7432 34.4794 44.461 34.0619 43.8884L32.4458 45.0667ZM35.8115 46.7432C37.1789 46.7432 38.3333 46.2279 39.1406 45.1595L37.5448 43.9538C37.1568 44.4674 36.6237 44.7432 35.8115 44.7432V46.7432ZM39.1427 45.1566C39.9163 44.1251 40.2466 42.7457 40.2655 41.1496L38.2656 41.1258C38.2494 42.4945 37.9644 43.3944 37.5427 43.9566L39.1427 45.1566ZM40.2656 41.1377V40.1885H38.2656V41.1377H40.2656ZM45.2509 45.6201H44.2509V46.6201H45.2509V45.6201ZM51.3154 45.6201H52.3154V44.6201H51.3154V45.6201ZM51.3154 47V48H52.3154V47H51.3154ZM43.5546 47H42.5546V48H43.5546V47ZM43.5546 34.2031V33.2031H42.5546V34.2031H43.5546ZM45.2509 34.2031H46.2509V33.2031H45.2509V34.2031ZM45.2509 46.6201H51.3154V44.6201H45.2509V46.6201ZM50.3154 45.6201V47H52.3154V45.6201H50.3154ZM51.3154 46H43.5546V48H51.3154V46ZM44.5546 47V34.2031H42.5546V47H44.5546ZM43.5546 35.2031H45.2509V33.2031H43.5546V35.2031ZM44.2509 34.2031V45.6201H46.2509V34.2031H44.2509Z" fill="black"/>
<defs>
<filter id="filter0_f" x="0.5" y="0.5" width="65" height="65" filterUnits="userSpaceOnUse" color-interpolation-filters="sRGB">
<feFlood flood-opacity="0" result="BackgroundImageFix"/>
<feBlend mode="normal" in="SourceGraphic" in2="BackgroundImageFix" result="shape"/>
<feGaussianBlur stdDeviation="2.25" result="effect1_foregroundBlur_212:3"/>
</filter>
<filter id="filter1_f" x="12.1031" y="26.468" width="46.8055" height="31.2833" filterUnits="userSpaceOnUse" color-interpolation-filters="sRGB">
<feFlood flood-opacity="0" result="BackgroundImageFix"/>
<feBlend mode="normal" in="SourceGraphic" in2="BackgroundImageFix" result="shape"/>
<feGaussianBlur stdDeviation="2.3" result="effect1_foregroundBlur_212:3"/>
</filter>
</defs>
</svg>
