<svg width="57" height="67" viewBox="0 0 57 67" fill="none" xmlns="http://www.w3.org/2000/svg">
<g filter="url(#filter0_f)">
<path d="M8.31906 8.31918H48.3191L44.1085 48.5308L28.3191 58.3192L12.5296 48.5308L8.31906 8.31918Z" stroke="#EFFF4C" stroke-opacity="0.8" stroke-width="6" stroke-miterlimit="1" stroke-linecap="round" stroke-linejoin="round"/>
</g>
<g filter="url(#filter1_f)">
<path d="M14.1612 13.6102H42.477L40.6875 30.8059H28.3191H40.6875L39.1612 45.4091L28.3191 52.1287L17.477 45.4091L16.898 39.8006" stroke="#EFFF4C" stroke-opacity="0.8" stroke-width="6" stroke-miterlimit="1" stroke-linecap="round" stroke-linejoin="round"/>
</g>
<path d="M8.31906 8.31918H48.3191L44.1085 48.5308L28.3191 58.3192L12.5296 48.5308L8.31906 8.31918Z" stroke="#E8FF00" stroke-width="4" stroke-linecap="round" stroke-linejoin="round"/>
<path d="M14.1612 13.6102H42.477L40.6875 30.8059H28.3191H40.6875L39.1612 45.4091L28.3191 52.1287L17.477 45.4091L16.898 39.8006" stroke="#E9FF00" stroke-width="4" stroke-linecap="round" stroke-linejoin="round"/>
<path d="M8.31906 8.31918H48.3191L44.1085 48.5308L28.3191 58.3192L12.5296 48.5308L8.31906 8.31918Z" stroke="black" stroke-width="2" stroke-linecap="round" stroke-linejoin="round"/>
<path d="M14.1612 13.6102H42.477L40.6875 30.8059H28.3191H40.6875L39.1612 45.4091L28.3191 52.1287L17.477 45.4091L16.898 39.8006" stroke="black" stroke-width="2" stroke-linecap="round" stroke-linejoin="round"/>
<defs>
<filter id="filter0_f" x="0.244022" y="0.244144" width="56.1501" height="66.1501" filterUnits="userSpaceOnUse" color-interpolation-filters="sRGB">
<feFlood flood-opacity="0" result="BackgroundImageFix"/>
<feBlend mode="normal" in="SourceGraphic" in2="BackgroundImageFix" result="shape"/>
<feGaussianBlur stdDeviation="2.53752" result="effect1_foregroundBlur"/>
</filter>
<filter id="filter1_f" x="6.08612" y="5.53513" width="44.4659" height="54.6686" filterUnits="userSpaceOnUse" color-interpolation-filters="sRGB">
<feFlood flood-opacity="0" result="BackgroundImageFix"/>
<feBlend mode="normal" in="SourceGraphic" in2="BackgroundImageFix" result="shape"/>
<feGaussianBlur stdDeviation="2.53752" result="effect1_foregroundBlur"/>
</filter>
</defs>
</svg>
